<svg
	width="14"
	height="22"
	viewBox="0 0 14 22"
	fill="none"
	xmlns="http://www.w3.org/2000/svg"
>
	<g filter="url(#filter0_d_374_1773)">
		<path
			d="M8.33693 13.6779H5.64716C5.16179 13.6779 4.77753 13.3301 4.77753 12.8908V11.7011C4.77753 10.9872 4.87865 10.4381 5.08089 10.072C5.28313 9.70596 5.72805 9.23006 6.37522 8.60774L8.35716 6.75906C8.64029 6.44789 8.80208 6.02691 8.80208 5.53271C8.80208 5.03851 8.64029 4.61752 8.33693 4.26975C8.03357 3.94028 7.60887 3.77555 7.10328 3.77555C6.59768 3.77555 6.17298 3.97689 5.82917 4.37957C5.60671 4.63582 5.4247 4.96529 5.32358 5.34967C5.22246 5.69744 4.87865 5.95369 4.47418 5.95369H1.58216C1.03612 5.95369 0.611419 5.4961 0.732762 5.0019C1.05634 3.68403 1.70351 2.62241 2.69448 1.79874C3.90791 0.755431 5.4247 0.26123 7.24484 0.26123C9.06499 0.26123 10.5413 0.718824 11.6941 1.61571C12.8469 2.51259 13.4131 3.75724 13.4131 5.34967C13.4131 6.06352 13.312 6.57602 13.13 6.92379C12.9277 7.27156 12.8064 7.50951 12.7255 7.65594C12.6446 7.80237 12.4626 8.02202 12.1795 8.33318C11.8963 8.62604 11.7143 8.82738 11.6132 8.9189C11.148 9.33989 10.7031 9.74257 10.2784 10.1086C9.85372 10.4747 9.59081 10.7859 9.44924 11.0238C9.30768 11.2618 9.24701 11.6279 9.24701 12.1037V12.8908C9.20656 13.3118 8.8223 13.6779 8.33693 13.6779ZM5.22246 19.543C4.71686 19.0854 4.47418 18.5363 4.47418 17.8957C4.47418 17.2368 4.71686 16.6876 5.22246 16.2484C5.72805 15.8091 6.33477 15.5711 7.04261 15.5711C7.77066 15.5711 8.37738 15.7908 8.86275 16.2484C9.36835 16.7059 9.61104 17.2551 9.61104 17.8957C9.61104 18.5546 9.36835 19.1037 8.86275 19.543C8.35716 20.0006 7.75044 20.2203 7.04261 20.2203C6.33477 20.2203 5.72805 20.0006 5.22246 19.543Z"
			fill="url(#paint0_linear_374_1773)"
		/>
	</g>
	<defs>
		<filter
			id="filter0_d_374_1773"
			x="0.711914"
			y="0.26123"
			width="12.7012"
			height="21.459"
			filterUnits="userSpaceOnUse"
			color-interpolation-filters="sRGB"
		>
			<feFlood flood-opacity="0" result="BackgroundImageFix" />
			<feColorMatrix
				in="SourceAlpha"
				type="matrix"
				values="0 0 0 0 0 0 0 0 0 0 0 0 0 0 0 0 0 0 127 0"
				result="hardAlpha"
			/>
			<feOffset dy="1.5" />
			<feComposite in2="hardAlpha" operator="out" />
			<feColorMatrix
				type="matrix"
				values="0 0 0 0 0.101961 0 0 0 0 0.0980392 0 0 0 0 0.231373 0 0 0 1 0"
			/>
			<feBlend
				mode="normal"
				in2="BackgroundImageFix"
				result="effect1_dropShadow_374_1773"
			/>
			<feBlend
				mode="normal"
				in="SourceGraphic"
				in2="effect1_dropShadow_374_1773"
				result="shape"
			/>
		</filter>
		<linearGradient
			id="paint0_linear_374_1773"
			x1="7.06252"
			y1="0.26123"
			x2="7.06252"
			y2="19.3886"
			gradientUnits="userSpaceOnUse"
		>
			<stop stop-color="#F7FAFF" />
			<stop offset="1" stop-color="#9ABDF3" />
		</linearGradient>
	</defs>
</svg>
