<svg id="Capa_2" data-name="Capa 2" xmlns="http://www.w3.org/2000/svg" viewBox="0 0 1080 1080"><defs><style>.cls-1{fill:#6e6fa6;}</style></defs><title>.5</title><path class="cls-1" d="M579.53,764.83c9-14.7,27.26-30.43,48.86-45.19,21.33-14.59,42.59-24.66,59.22-29,6.79-21.17,10.73-44.2,12.12-68.29C706.66,501.81,599,377.24,465.94,465.92l7-83.24H658.26l12.67-112.44H379.54L359,560.06l101.55,22c10.75-24.76,31.1-36,54.44-36,34.55,0,57.11,31.17,57.11,76.33s-22.56,81.78-57.11,81.78-62.19-27.72-62.19-72.88L332.27,648.71c12.8,91,91,161,185.54,161,21.87,0,37-1.42,54.53-6.37C572.34,803.39,563.27,791.32,579.53,764.83Z"/><path class="cls-1" d="M690,701.9l0,.1c1.82-.55,3.61-1.07,5.34-1.5C693.63,700.9,691.85,701.38,690,701.9Z"/><path class="cls-1" d="M846.37,818.75c-40.47.07-74.89-10-87.58-24-1.79-1.45-5.22-5-5.22-5l0,20.67c0,21,41.5,38,92.64,37.9S938.82,831,938.8,810l.31-26.33c0-.21,0-.43,0-.65C938.27,802.72,897.08,818.66,846.37,818.75Z"/><path class="cls-1" d="M859.43,803.49c41.92-2.65,73.81-16.45,74.86-33.66-.22-9.5-8.92-18.28-23.17-25.09-2-.92-4.16-1.81-6.4-2.65l-.28,8.8c-.37,21-42.13,37.41-93.27,36.6-21.74-.34-41.67-3.73-57.38-9.14,12.43,14.29,46.65,24.93,87.12,25.57,6.34.1,12.53,0,18.52-.43"/><path class="cls-1" d="M893.17,719.82a5.76,5.76,0,0,0-.19-2.48c-1.68,5.36-7.92,9.34-16.18,13.55-16,8-42.28,13.2-71.95,13.2-15.73,0-28.49-1.08-41.29-3.65-1.6,8.28-14,27.27-14,27.27a196.45,196.45,0,0,0,55.11,8.17c48.71,0,88.2-14.83,88.2-33.13l.1-7.67Z"/><path class="cls-1" d="M764.57,729.37c67.4,10.91,112.06-10.92,112.06-10.92,8.27-4.2,14.35-9.06,16-14.42a11.76,11.76,0,0,0,.55-3.52c0-17.38-39.56-31.48-88.36-31.48-38.82,0-72.27,5.57-93.67,15.1,0,0,23.18-.22,35.8,15.16,6.81,8.3,12.56,17.77,15.63,22a10.34,10.34,0,0,1,2,6C764.62,728.49,764.57,729.37,764.57,729.37Z"/><path class="cls-1" d="M749.38,726.72l-9.7-14.65c-.1-.14-.32-.49-1.07-1.59,3.92,16.93-18.14,44.38-58,71.63-36.32,24.83-72.42,36.63-85.83,28.95l-1.18.33,10.17,14.87c9.58,14,49.94,3.09,90.15-24.39S759,740.74,749.38,726.72Z"/><path class="cls-1" d="M674.28,774c39.87-27.26,65-60,56.71-73.54-4.63-6.12-15.52-7.13-29.82-3.8l-.62.17c-16.64,4.29-37.89,14.37-59.22,29-21.6,14.77-38.88,31.14-48.87,45.2-8.29,12.11-11.3,22.62-7.28,29.16,2.67,3.52,7.66,5.16,14.32,5.12C616.83,805.14,645.48,793.65,674.28,774Z"/></svg>