<svg id="Capa_3" data-name="Capa 3" xmlns="http://www.w3.org/2000/svg" viewBox="0 0 1080 1080"><defs><style>.cls-1{fill:#6e6fa6;}</style></defs><title>1</title><path class="cls-1" d="M338.77,741.39c-43.33,0-78.54-14-79.26-31.47,0,.19,0,.38,0,.58v23.31c0,18.61,35.43,33.7,79.13,33.7s79.13-15.09,79.13-33.7L418,710.5c0-.2,0-.39,0-.58C417.3,727.35,382.09,741.39,338.77,741.39Z"/><path class="cls-1" d="M396.79,686.05c.35.17.72.32,1.06.49l-1.09-.48c-14.47,6.39-35.1,10.39-58,10.39s-43.53-4-58-10.39l-1.09.48,1.06-.49c-11.29-5-18.82-11.43-20.75-18.57a15.08,15.08,0,0,0-.5,3.83v23.75c0,19,35.43,34.32,79.13,34.32s79.13-15.37,79.13-34.32l.29-23.75a15.08,15.08,0,0,0-.5-3.83C415.61,674.62,408.08,681.06,396.79,686.05Z"/><path class="cls-1" d="M338.64,628.57c-42.37,0-76.71,12.87-76.71,28.74a11.4,11.4,0,0,0,.48,3.21c1.87,6.29,9.16,12,20.08,16.37h0c14,5.62,34,9.15,56.12,9.15s42.11-3.53,56.11-9.15h0c10.92-4.4,18.21-10.08,20.08-16.37a11.4,11.4,0,0,0,.48-3.21C415.34,641.44,381,628.57,338.64,628.57Z"/><path class="cls-1" d="M338.77,781.06c-43.33,0-78.54-14-79.26-31.47,0,.19,0,.38,0,.57v23.31c0,18.62,35.43,33.71,79.13,33.71s79.13-15.09,79.13-33.71l.29-23.31c0-.19,0-.38,0-.57C417.3,767,382.09,781.06,338.77,781.06Z"/><path class="cls-1" d="M415.6,815.4c-27,6.84-28.78,22.79-28.78,22.79-13.55,4.62-29.5,7-48.2,7-43.7,0-79.13-15.09-79.13-33.7V788.15c0-.19,0-.38,0-.58C260.23,805,295.44,819,338.77,819S417.3,805,418,787.57c0,.2,0,.39,0,.58l-.21,26.67Z"/><path class="cls-1" d="M412,824.06c-8.09,3.05-14,6.82-17.06,11.06C402.25,832,408.09,828.23,412,824.06Z"/><path class="cls-1" d="M386.92,876.54c-13.85,5.07-28.59,7.38-48.3,7.38-43.7,0-79.13-15.09-79.13-33.7V826.91c0-.19,0-.39,0-.58.72,17.43,35.93,31.47,79.26,31.47a179.09,179.09,0,0,0,48.64-6.74Z"/><path class="cls-1" d="M550.64,874.06l.67-15.75c0-.15,0-.52.06-1.72-6.07,14.36-36.55,22.69-79.86,21.49-39.46-1.08-71.9-11.52-77.6-24.17l-1-.37-.44,16.16c-.42,15.22,34.65,28.54,78.34,29.74S550.22,889.28,550.64,874.06Z"/><path class="cls-1" d="M471.21,868.84c43.31,1.19,78.79-9.32,79.91-23.56-.14-6.88-7.52-13.35-19.66-18.46l-.54-.21c-14.35-5.64-35.09-9.51-58.27-10.15-23.47-.65-44.63,2.15-59.29,7.1-12.4,4.43-20.13,10.49-20.65,17.35.09,4,2.85,7.79,7.7,11.27C413.05,861.24,439.92,868,471.21,868.84Z"/><path class="cls-1" d="M559.63,821.56c-5.78-5-39.17-31.52-126-21.2V721.48h57.13V432.75c-21,34.13-85.3,59.06-85.3,59.06V373.7c49.87-14.44,120.74-97.12,120.74-97.12H627.22V718.85h86.62V822.53Z"/><path class="cls-1" d="M605.6,195,571.28,137a2.69,2.69,0,0,0-4.3.06l-30.91,57.64a2.73,2.73,0,0,1-4.19.23l-27.41-35.15c-1.36-1.74-4.9-.68-4.29,1.29l16.62,54.09L527,257.8a2.25,2.25,0,0,0,2.3,1.45h88.61a2.2,2.2,0,0,0,2.32-1.54c1.39-8.66,5-26.63,7.89-46.22,2.37-16,7.14-33.05,10.64-45.92.53-1.93-2.93-2.95-4.29-1.26l-24.74,30.83A2.74,2.74,0,0,1,605.6,195Z"/></svg>