<svg id="Capa_4" data-name="Capa 4" xmlns="http://www.w3.org/2000/svg" viewBox="0 0 1080 1080"><defs><style>.cls-1{fill:#6e6fa6;}</style></defs><title>5</title><path class="cls-1" d="M563.58,165.46,516.92,91.51c-1.15-1.82-4.8-1.77-5.85.07l-42,73.58c-1,1.73-4.35,1.9-5.69.29l-37.28-44.87c-1.84-2.22-6.66-.86-5.84,1.65l22.6,69.05,13.9,54.42c.27,1.07,1.59,1.85,3.13,1.85H580.34c1.6,0,3-.85,3.15-2,1.89-11.05,6.8-34,10.73-59,3.21-20.48,9.71-42.19,14.47-58.62.71-2.47-4-3.77-5.84-1.61l-33.64,39.35C567.88,167.26,564.63,167.12,563.58,165.46Z"/><path class="cls-1" d="M359,754.38c-42.56,0-77.14-13.79-77.86-30.91,0,.19,0,.38,0,.57v22.89c0,18.29,34.8,33.11,77.73,33.11s77.73-14.82,77.73-33.11l.28-22.89c0-.19,0-.38,0-.57C436.09,740.59,401.51,754.38,359,754.38Z"/><path class="cls-1" d="M416,700l1,.48-1.07-.46c-14.22,6.27-34.48,10.2-57,10.2s-42.76-3.93-57-10.2l-1.07.46,1-.48c-11.09-4.9-18.49-11.23-20.39-18.24a15.44,15.44,0,0,0-.48,3.76v23.33c0,18.62,34.8,33.72,77.73,33.72s77.73-15.1,77.73-33.72l.28-23.33a15,15,0,0,0-.49-3.76C434.44,688.79,427,695.12,416,700Z"/><path class="cls-1" d="M358.82,643.56c-41.61,0-75.34,12.64-75.34,28.23a10.93,10.93,0,0,0,.47,3.15c1.83,6.18,9,11.76,19.72,16.08h0c13.75,5.53,33.36,9,55.12,9s41.37-3.46,55.12-9h0c10.73-4.32,17.89-9.9,19.72-16.08a10.93,10.93,0,0,0,.47-3.15C434.16,656.2,400.43,643.56,358.82,643.56Z"/><path class="cls-1" d="M359,793.35c-42.56,0-77.14-13.79-77.86-30.92,0,.19,0,.38,0,.57v22.9c0,18.28,34.8,33.1,77.73,33.1s77.73-14.82,77.73-33.1l.28-22.9c0-.19,0-.38,0-.57C436.09,779.56,401.51,793.35,359,793.35Z"/><path class="cls-1" d="M586.24,751.1c0-52.49,27-95,60.38-95,16.8,0,32,10.8,42.93,28.22a282,282,0,0,0,10.18-61.9C706.66,501.81,599,377.24,465.94,465.92l7-83.24H658.26l12.67-112.44H379.54L359,560.06l101.55,22c10.75-24.76,31.1-36,54.44-36,34.55,0,57.11,31.17,57.11,76.33s-22.56,81.78-57.11,81.78-62.19-27.72-62.19-72.88L407,637.9c31.67,8.61,42.46,28.33,42.46,28.33V796.91a186.75,186.75,0,0,0,68.32,12.85c29.07,0,54.22-4.7,75.76-13.23A139.72,139.72,0,0,1,586.24,751.1Z"/><ellipse class="cls-1" cx="647.64" cy="750.72" rx="49.34" ry="79.54"/><polygon class="cls-1" points="347.27 292.91 320.87 326.92 297.74 311.18 318.13 287.55 347.27 292.91"/><polygon class="cls-1" points="209.11 398.35 248.54 380.75 240.27 356.19 214.74 366.56 209.11 398.35"/><polygon class="cls-1" points="316.04 332.93 255.26 377.16 246.41 351.8 292.26 316.73 316.04 332.93"/><polygon class="cls-1" points="303.72 291.62 289.52 309.42 238.81 347.04 220.95 354.86 232.81 336.09 284.26 299.31 303.72 291.62"/><polygon class="cls-1" points="352.56 299.13 326.19 335.05 347.73 415.26 352.56 299.13"/><polygon class="cls-1" points="214.97 405.2 251.5 387.89 330.47 429.94 214.97 405.2"/><polygon class="cls-1" points="343.06 427.79 259.84 383.57 320.36 340.3 343.06 427.79"/><polygon class="cls-1" points="732.25 538.07 754.51 574.93 779.31 561.99 761.81 536.14 732.25 538.07"/><polygon class="cls-1" points="857.19 658.88 820.08 636.81 831.15 613.38 855.31 626.65 857.19 658.88"/><polygon class="cls-1" points="758.61 581.46 813.82 632.46 825.57 608.31 784.11 568.13 758.61 581.46"/><polygon class="cls-1" points="775.65 541.86 787.69 561.19 833.67 604.46 850.49 614.31 840.9 594.28 794.09 551.76 775.65 541.86"/><polygon class="cls-1" points="726.27 543.64 748.28 582.37 717.54 659.54 726.27 543.64"/><polygon class="cls-1" points="850.58 665 816.31 643.56 732.98 676.13 850.58 665"/><polygon class="cls-1" points="720.73 672.52 808.52 638.29 753.46 588.27 720.73 672.52"/></svg>