<svg width="15" height="16" viewBox="0 0 15 16" fill="none" xmlns="http://www.w3.org/2000/svg">
	<path d="M5.32764 14.668C5.67514 15.4494 6.4457 16.0004 7.35514 16.0004C8.26457 16.0004 9.03514 15.4494 9.38267 14.668C8.74139 14.6993 8.07451 14.7204 7.35514 14.7204C6.63579 14.7204 5.96892 14.6993 5.32764 14.668Z" fill="#6E6FA6" />
	<path d="M14.4138 11.28C13.5703 10.2163 12.1546 8.12544 12.1546 6.08C12.1546 4.05184 10.8516 2.22719 8.95462 1.55647C8.93158 0.69375 8.22246 0 7.35524 0C6.4874 0 5.77893 0.69375 5.75587 1.55647C3.85827 2.22719 2.55524 4.05184 2.55524 6.08C2.55524 8.12609 1.14021 10.2163 0.296054 11.28C0.0144602 11.6352 -0.0726023 12.1043 0.0637414 12.535C0.196866 12.9555 0.528366 13.2813 0.950773 13.4054C1.69062 13.6237 2.9034 13.8694 4.75302 13.9949C5.55365 14.0486 6.41446 14.08 7.35527 14.08C8.29543 14.08 9.15624 14.0486 9.95687 13.9949C11.8071 13.8694 13.0193 13.6237 13.7597 13.4054C14.1821 13.2813 14.513 12.9555 14.6461 12.535C14.7825 12.1043 14.6948 11.6352 14.4138 11.28Z" fill="#6E6FA6" />
</svg>
