<svg width="23" height="18" viewBox="0 0 23 18" fill="none" xmlns="http://www.w3.org/2000/svg">
	<path d="M18.7628 2.28365C17.3565 1.64942 15.8491 1.18065 14.2727 0.914089C14.2586 0.911394 14.2441 0.91313 14.2311 0.919059C14.2181 0.924987 14.2073 0.934814 14.2001 0.947179C14.0071 1.28635 13.792 1.72847 13.6412 2.07776C11.9693 1.82796 10.2696 1.82796 8.59775 2.07776C8.42985 1.69066 8.24051 1.31321 8.03062 0.947179C8.02351 0.934662 8.01274 0.924613 7.99977 0.918372C7.98679 0.912131 7.97223 0.909996 7.95801 0.91225C6.38255 1.17881 4.87512 1.64758 3.46787 2.28273C3.45576 2.28781 3.4455 2.29647 3.43846 2.30755C0.578005 6.51274 -0.206046 10.6141 0.179086 14.6639C0.180158 14.6738 0.183236 14.6834 0.188135 14.6921C0.193034 14.7008 0.19965 14.7084 0.20758 14.7145C1.87715 15.93 3.73933 16.856 5.71615 17.4536C5.72994 17.4578 5.74467 17.4578 5.75845 17.4536C5.77222 17.4493 5.78439 17.441 5.79336 17.4297C6.21875 16.8608 6.5957 16.2572 6.92027 15.6254C6.92477 15.6167 6.92737 15.6072 6.92788 15.5975C6.92839 15.5878 6.92681 15.578 6.92323 15.569C6.91966 15.5599 6.91418 15.5517 6.90717 15.545C6.90015 15.5382 6.89177 15.533 6.88258 15.5298C6.2888 15.3062 5.71348 15.0363 5.1619 14.7228C5.15199 14.7171 5.14363 14.7091 5.13759 14.6994C5.13155 14.6897 5.128 14.6787 5.12727 14.6673C5.12655 14.6559 5.12866 14.6445 5.13341 14.6341C5.13817 14.6238 5.14543 14.6147 5.15454 14.6079C5.27036 14.5224 5.38617 14.4332 5.49647 14.3441C5.5064 14.336 5.51836 14.3309 5.53102 14.3293C5.54368 14.3277 5.55654 14.3296 5.56817 14.3349C9.17774 15.9563 13.087 15.9563 16.6543 14.3349C16.6659 14.3293 16.6789 14.3271 16.6917 14.3286C16.7046 14.33 16.7168 14.3351 16.7269 14.3431C16.8372 14.4332 16.9521 14.5224 17.0688 14.6079C17.078 14.6146 17.0854 14.6235 17.0903 14.6338C17.0952 14.6441 17.0975 14.6554 17.0969 14.6668C17.0964 14.6782 17.093 14.6892 17.0872 14.699C17.0813 14.7088 17.0731 14.7169 17.0633 14.7228C16.5136 15.0389 15.9419 15.3064 15.3417 15.5289C15.3325 15.5322 15.3241 15.5375 15.317 15.5443C15.31 15.5512 15.3046 15.5595 15.301 15.5686C15.2974 15.5777 15.2958 15.5875 15.2964 15.5973C15.2969 15.6071 15.2995 15.6167 15.304 15.6254C15.6349 16.2568 16.0136 16.858 16.43 17.4288C16.4386 17.4405 16.4507 17.4493 16.4645 17.4539C16.4783 17.4585 16.4932 17.4587 16.5072 17.4545C18.4874 16.8586 20.3526 15.9322 22.024 14.7145C22.0322 14.7088 22.039 14.7014 22.0441 14.6928C22.0492 14.6843 22.0524 14.6747 22.0534 14.6648C22.513 9.9826 21.2832 5.91436 18.7913 2.30939C18.7852 2.29767 18.7751 2.28854 18.7628 2.28365ZM7.45982 12.1978C6.37336 12.1978 5.47717 11.2152 5.47717 10.0102C5.47717 8.80423 6.3559 7.82256 7.45982 7.82256C8.57201 7.82256 9.45993 8.8125 9.44246 10.0102C9.44246 11.2161 8.56374 12.1978 7.45982 12.1978ZM14.7902 12.1978C13.7028 12.1978 12.8075 11.2152 12.8075 10.0102C12.8075 8.80423 13.6853 7.82256 14.7902 7.82256C15.9024 7.82256 16.7903 8.8125 16.7728 10.0102C16.7728 11.2161 15.9033 12.1978 14.7902 12.1978Z" fill="#EEEEFE" />
</svg>
