<svg id="Capa_7" data-name="Capa 7" xmlns="http://www.w3.org/2000/svg" viewBox="0 0 1080 1080"><defs><style>.cls-1{fill:#6e6fa7;}</style></defs><title>modo eliminación</title><path class="cls-1" d="M791.52,686c32.83,22.32,70.19,56.16,96,86.3,14.3,16.68,29.16,35.56,50.63,40.18,9.48,2,19.45,1,28.7-1.91a74.88,74.88,0,0,0,48.17-48.35c3.78-12.17,4.53-25.61,11.61-36.21,2.53-3.79,5.81-7.09,7.84-11.18,8.37-16.82-9.14-36.4-27.53-40.24s-37.45,1.51-56.21.37c-14.56-.89-29.45-3.62-42.37-10.41-28.43-14.93-57.85-28.25-87.34-41.26,0,0-5.3,19.6-10.17,34.89S791.52,686,791.52,686Z"/><path class="cls-1" d="M327.88,680.9c-32.83,22.31-70.19,56.15-96,86.29-14.3,16.68-29.15,35.56-50.63,40.18-9.48,2-19.45,1-28.7-1.91a74.84,74.84,0,0,1-48.16-48.35c-3.78-12.16-4.54-25.61-11.61-36.2-2.54-3.79-5.82-7.1-7.85-11.18-8.37-16.83,9.15-36.4,27.54-40.25s37.45,1.51,56.2.37c14.56-.89,29.45-3.62,42.37-10.4,28.43-14.93,57.85-28.25,87.34-41.26,0,0,5.3,19.59,10.17,34.88S327.88,680.9,327.88,680.9Z"/><path class="cls-1" d="M837.09,420.21A539,539,0,0,1,892,406.76a42.71,42.71,0,0,1,9.61-1c4.55.2,8.91,1.79,13.26,3.12a129.25,129.25,0,0,0,95.11-8.07c17.59-8.88,34.65-25.56,32.06-45.09-1.91-14.39-14-25.45-17.91-39.41-3.61-12.74-.1-26.24,1.28-39.41,1.55-14.72,0-30.76-9.41-42.2-10-12.15-27.35-16.62-42.83-13.82S944,232.8,932.73,243.79,912.31,267.68,902.52,280c-11.31,14.25-23.6,27.87-38,38.94-16.93,13-34,21.05-53.34,30.13,0,0,15.37,28.87,19.37,42.48A258.57,258.57,0,0,1,837.09,420.21Z"/><path class="cls-1" d="M295,411.1A541.7,541.7,0,0,0,240,397.65a42.07,42.07,0,0,0-9.61-1c-4.55.19-8.9,1.78-13.26,3.11a129.25,129.25,0,0,1-95.11-8.07C104.46,382.8,87.4,366.12,90,346.59c1.91-14.39,14-25.44,17.91-39.41,3.61-12.74.1-26.24-1.28-39.41-1.55-14.72,0-30.76,9.42-42.19,10-12.16,27.34-16.63,42.82-13.83s29.2,11.94,40.46,22.93,20.43,23.89,30.21,36.21c11.31,14.25,23.6,27.87,38,38.95,16.93,13,34,21.05,53.34,30.13,0,0-15.37,28.87-19.37,42.47A258.57,258.57,0,0,0,295,411.1Z"/><path class="cls-1" d="M802.18,400.28C769.16,290,668,211,559.91,211c-27.46,0-51.59,4.08-76.64,13.48l6.41,37.93a4.62,4.62,0,0,0,6.89,2.86l7.65-4.66a3.35,3.35,0,0,1,5.1,2.84l.92,123.2a1.79,1.79,0,0,1-3.52.46L486.56,310A4,4,0,0,0,480,308l-1.43,1.32a5.3,5.3,0,0,1-8.78-2.84q-7.12-35-14.26-69.89c-63.44,32.9-113.38,95.46-134.16,176.28C316,426,311.13,483.82,311.13,483.82c-.43,11.29-.36,22.8.29,34.54,2.64,47.5,5.18,102.67,33.59,143a115.28,115.28,0,0,0,28.7,28.28A150.34,150.34,0,0,0,393.09,701c12.65,6.21,22.11,6.66,29.71,19.8a443.56,443.56,0,0,1,21.46,41.64C454.59,785.67,468,804,491.78,814.58c22,9.76,46.75,12,70.56,11.19,28.07-.94,57-6.33,81.39-20.83,24.16-14.35,37.67-38.3,48-63.65,3.85-9.46,7.92-19.12,14.42-27.11,7.64-9.4,17.7-12.94,27.91-18.69,5.8-3.26,11.62-6.49,17.29-10,9.44-5.77,18.52-12.27,25.56-20.91,20.94-25.68,24.25-64.38,28.32-95.85,2.84-22,5-44.06,7.06-66.13.83-9.05,1.19-18,1.14-26.83C813.78,457.57,802.18,400.28,802.18,400.28ZM495.81,625.85c-4.58,5.33-9.93,10.16-16.34,13-9.74,4.36-21,3.8-31.44,1.67-21.16-4.32-41.22-15-55.41-31.33S370.46,571,372.41,549.48c.25-2.76.7-5.62,2.33-7.85,2-2.73,5.37-4,8.57-5.11a255.9,255.9,0,0,1,125.77-9.72,12,12,0,0,1,9.07,7.33h0a12.15,12.15,0,0,1,.84,3.42C521.84,568.75,516.18,602.13,495.81,625.85Zm100.45,89.64c-1.5,5.48-6.15,10.49-11.83,10.58-9.17.14-15.81-11.8-24.84-10.17-7.7,1.39-10.89,11.82-18.45,13.83-5.29,1.4-10.92-2.11-13.57-6.89s-3-10.49-2.79-16a117.22,117.22,0,0,1,33.44-78.17l5,.77c7.7.23,12.52,8.23,15.54,15.31a281.51,281.51,0,0,1,16.86,53.85C596.79,704.2,597.76,710,596.26,715.49ZM735.11,609.21c-14.19,16.28-34.25,27-55.41,31.33-10.45,2.13-21.69,2.69-31.43-1.67-6.41-2.86-11.77-7.69-16.34-13-20.38-23.72-26-57.1-23.19-88.3a12.15,12.15,0,0,1,.84-3.42h0a12,12,0,0,1,9.07-7.33,256,256,0,0,1,125.78,9.72c3.2,1.09,6.57,2.38,8.56,5.11,1.63,2.23,2.09,5.09,2.34,7.85C757.28,571,749.31,592.92,735.11,609.21Z"/></svg>