<svg xmlns="http://www.w3.org/2000/svg" fill="none" viewBox="0 0 24 24">
	<path
		fill="#6e6fa6"
		fillRule="evenodd"
		d="M9.15415 2.63176C9.56918 1.8847 9.41055 1.07787 8.91536 0.560173C8.42989 0.0526349 7.64324 -0.153248 6.89235 0.180479C6.87976 0.186077 6.86732 0.192021 6.85505 0.198305C2.49684 2.43056 -0.383332 7.11236 0.0413517 12.3364C0.469998 18.413 5.56948 23.5123 11.6461 23.9407C16.9564 24.3641 21.6437 21.4978 23.7824 17.13C24.2002 16.358 23.9789 15.5426 23.4478 15.0558C22.9224 14.5742 22.0981 14.4124 21.3503 14.8279C21.3356 14.8361 21.3212 14.8447 21.3071 14.8538C19.7614 15.854 17.7413 16.3186 15.7109 16.0423C11.8315 15.487 8.59509 12.3393 8.04034 8.37468C7.76344 6.24605 8.22445 4.30522 9.15415 2.63176Z"
		clipRule="evenodd"
	></path>
</svg>
