<svg id="Capa_6" data-name="Capa 6" xmlns="http://www.w3.org/2000/svg" viewBox="0 0 1080 1080"><defs><style>.cls-1,.cls-2{fill:none;stroke:#6e6fa7;stroke-linecap:round;stroke-miterlimit:10;}.cls-1{stroke-width:46px;}.cls-2{stroke-width:43.55px;}.cls-3{fill:#6e6fa7;}</style></defs><title>modo rápido</title><line class="cls-1" x1="315.35" y1="479.49" x2="111.11" y2="479.49"/><line class="cls-1" x1="298.77" y1="574.12" x2="42.74" y2="574.12"/><line class="cls-1" x1="315.35" y1="663.03" x2="111.11" y2="663.03"/><line class="cls-1" x1="349.23" y1="751.93" x2="171.28" y2="751.93"/><path class="cls-2" d="M705.33,439.8l-32.9,135.56a6.91,6.91,0,0,0,7.81,8.46l83.88-13.42"/><path class="cls-3" d="M954.22,353.28l2.93,2.93a13.69,13.69,0,0,0,19.37,0l30.5-30.5a13.68,13.68,0,0,0,0-19.36l-47.16-47.16a13.69,13.69,0,0,0-19.37,0L910,289.69a13.69,13.69,0,0,0,0,19.37l4.4,4.4-20.1,18.86a324.89,324.89,0,0,0-169.83-74.64h0V213.45h14a13.69,13.69,0,0,0,13.69-13.69V143.21a13.69,13.69,0,0,0-13.69-13.7H619.46a13.69,13.69,0,0,0-13.69,13.7v56.55a13.69,13.69,0,0,0,13.69,13.69h20.59v44.23h2.62A324.88,324.88,0,0,0,471.8,333.19L452,312.71l2.72-2.72a13.7,13.7,0,0,0,0-19.36l-30.5-30.5a13.69,13.69,0,0,0-19.37,0l-47.16,47.15a13.71,13.71,0,0,0,0,19.37l30.5,30.5a13.69,13.69,0,0,0,19.37,0l2.79-2.79,20.77,20.33h0a325,325,0,0,0-73.88,206.79c0,180.23,146.11,326.33,326.34,326.33S1009.9,761.7,1009.9,581.47a325,325,0,0,0-75.4-208.62ZM830.12,806l-20.53-34a12.09,12.09,0,0,0-20.69,12.5l20.4,33.76A266.06,266.06,0,0,1,695.65,849V809.74a12.08,12.08,0,0,0-12.08-12.08h0a12.08,12.08,0,0,0-12.09,12.08v39.18A265.89,265.89,0,0,1,558.86,818l20.22-33.47A12.09,12.09,0,0,0,558.39,772L538.06,805.7a268.79,268.79,0,0,1-81.77-84.12L487,704.22a12.08,12.08,0,0,0-11.88-21l-30.57,17.26a266.06,266.06,0,0,1-27.45-106.77l32.33-.41a12.08,12.08,0,1,0-.31-24.16l-32,.4a266,266,0,0,1,29-109.56l29.38,16a12.08,12.08,0,0,0,11.53-21.24L458.13,439A268.88,268.88,0,0,1,541,355.89l17.4,28.81a12.08,12.08,0,1,0,20.69-12.49L562,343.85a266,266,0,0,1,110.28-29.31v35.72a12.08,12.08,0,0,0,24.16,0V314.54A265.85,265.85,0,0,1,807.7,344.35l-18.8,31.11A12.09,12.09,0,0,0,809.59,388l19-31.5a268.85,268.85,0,0,1,80.07,79.59l-32.91,18.58a12.08,12.08,0,0,0-4.58,16.46h0a12.08,12.08,0,0,0,16.46,4.58l33.28-18.79a265.92,265.92,0,0,1,30.6,112.31l-38.19.48a12.08,12.08,0,1,0,.3,24.16l37.92-.48a265.79,265.79,0,0,1-28,108.24L890,683.41a12.08,12.08,0,0,0-16.38,4.85h0a12.07,12.07,0,0,0,4.85,16.38l33.21,18A268.81,268.81,0,0,1,830.12,806Z"/></svg>