<?xml version="1.0" encoding="utf-8"?>
<!-- Generator: Adobe Illustrator 25.2.1, SVG Export Plug-In . SVG Version: 6.00 Build 0)  -->
<svg
	version="1.1"
	id="Layer_1"
	xmlns="http://www.w3.org/2000/svg"
	xmlns:xlink="http://www.w3.org/1999/xlink"
	x="0px"
	y="0px"
	viewBox="0 0 24 24"
	style="enable-background: new 0 0 24 24"
	xml:space="preserve"
>
	<g>
		<path
			fill="#6e6fa6"
			d="M14.4,1.9l-2.6,2.6L9.8,1.9L7.7,4.4L5.2,1.9v6.7h9.3V1.9z M6.2,11.6h7.2c0.6,0,1-0.5,1-1v-1H5.2v1
		C5.2,11.2,5.6,11.6,6.2,11.6z"
		/>
		<g>
			<path
				fill="#6e6fa6"
				d="M18.7,16.8h-10c-0.2,0-0.4-0.2-0.4-0.4v-3.4c0-0.2,0.2-0.4,0.4-0.4h10c0.2,0,0.4,0.2,0.4,0.4v3.4
			C19.1,16.7,18.9,16.8,18.7,16.8z"
			/>
			<path
				fill="#6e6fa6"
				d="M15.5,22.1h-10c-0.2,0-0.4-0.2-0.4-0.4v-3.4c0-0.2,0.2-0.4,0.4-0.4h10c0.2,0,0.4,0.2,0.4,0.4v3.4
			C15.9,22,15.7,22.1,15.5,22.1z"
			/>
		</g>
	</g>
</svg>
