<svg width="142" height="106" viewBox="0 0 142 106" fill="none" xmlns="http://www.w3.org/2000/svg">
<circle cx="74.4966" cy="51.1251" r="51.1251" fill="#100F48"/>
<g clip-path="url(#clip0_1_662)">
<path d="M73.7809 100.214C98.7383 100.214 118.97 79.9495 118.97 54.9516C118.97 29.9537 98.7383 9.68893 73.7809 9.68893C48.8235 9.68893 28.5915 29.9537 28.5915 54.9516C28.5915 79.9495 48.8235 100.214 73.7809 100.214Z" fill="url(#paint0_linear_1_662)"/>
<path d="M43.3557 41.3569C46.4318 41.8185 49.8446 34.9456 50.9361 32.7712C51.2295 32.1844 51.5099 31.5717 51.5574 30.9203C51.6048 30.2645 51.3719 29.5569 50.8239 29.1945C50.1854 28.7717 49.3355 28.9356 48.5977 29.1298C48.1274 29.2549 47.6571 29.3886 47.1912 29.531C45.172 30.1437 43.0493 31.0281 41.9707 32.8488C40.918 34.622 40.3183 40.8995 43.36 41.3612L43.3557 41.3569Z" fill="#151A59"/>
<path d="M64.574 22.1748C64.5266 22.1187 64.4748 22.0669 64.4187 22.0238C64.1426 21.8038 63.7888 21.7045 63.448 21.6269C61.6532 21.217 59.6167 21.2731 58.1671 22.4121C57.7659 22.727 57.3991 23.2318 57.5846 23.7064C57.6752 23.948 57.8953 24.1163 58.111 24.2587C58.7064 24.6383 59.6297 25.1129 60.3545 25.1129C60.8248 25.1129 61.2821 24.9576 61.7265 24.8066C62.4815 24.5477 63.1675 24.0904 63.901 23.7539C64.2806 23.5813 64.6991 23.357 64.8027 22.9514C64.8717 22.6796 64.7682 22.3905 64.5827 22.1748H64.574Z" fill="#151A59"/>
<path d="M36.1246 57.0182C36.5992 57.9674 37.2075 58.8993 38.1179 59.4472C38.2732 59.5421 38.4458 59.6241 38.627 59.6112C38.998 59.5853 39.2181 59.184 39.3389 58.8302C39.4856 58.4031 39.5977 57.9587 39.6711 57.5143C39.8005 56.7464 39.8135 55.9396 39.5718 55.1975C39.3259 54.4554 38.7952 53.7867 38.0661 53.5062C37.337 53.2258 36.4223 53.4113 35.952 54.0326C35.6328 54.4511 35.5465 55.012 35.6155 55.534C35.6845 56.0561 35.896 56.5479 36.1332 57.0182H36.1246Z" fill="#151A59"/>
<path d="M85.6585 28.7066C85.611 28.8274 85.5722 28.9525 85.5377 29.0776C85.0372 31.0019 86.3359 32.9132 87.7208 34.3413C91.9662 38.7247 99.1972 37.8748 104.245 35.23C105.44 34.6044 106.674 33.5043 106.48 32.1668C106.342 31.2219 105.531 30.5359 104.746 29.9923C100.97 27.3864 96.423 25.9195 91.8368 25.8289C90.5597 25.803 89.2524 25.8893 88.0746 26.3854C87.0175 26.8298 86.0727 27.6453 85.6542 28.7066H85.6585Z" fill="#151A59"/>
<path d="M88.2731 46.31C91.4054 46.0986 91.427 41.9869 88.9721 40.4985C87.38 39.532 83.6955 39.1912 83.6481 41.8532C83.6308 42.811 84.1313 43.7041 84.731 44.4505C85.4989 45.3997 86.5473 46.2367 87.764 46.31C87.9409 46.3186 88.1092 46.3186 88.2731 46.31Z" fill="#151A59"/>
<path d="M56.0011 68.3391C59.2801 71.782 63.4522 74.3664 67.9909 75.7642C68.8754 76.036 69.8073 76.2647 70.7177 76.0921C71.3648 75.967 71.9602 75.6434 72.4866 75.2465C74.7128 73.5596 75.6577 70.6559 75.9769 67.8818C76.2703 65.3319 75.9424 63.6364 73.6299 62.2816C69.2508 59.7189 63.9052 59.8008 59.1938 61.4533C57.934 61.8933 56.6742 62.4887 55.8027 63.5026C54.9312 64.5165 54.5342 66.0352 55.1382 67.226C55.3497 67.6445 55.6689 67.9983 55.9968 68.3391H56.0011Z" fill="#151A59"/>
<path d="M47.8038 85.5625C49.1672 86.3909 50.811 86.5893 52.0794 85.2346C52.485 84.7989 52.7482 84.2466 52.938 83.6771C53.1969 82.9048 53.3306 82.0635 53.1278 81.274C52.8043 80.0228 51.6782 79.4058 50.4486 79.3842C49.4002 79.3627 48.3431 79.5655 47.3767 79.9667C46.3628 80.3895 45.3403 81.2179 45.3575 82.3181C45.3662 82.8617 45.638 83.3708 45.9486 83.8152C46.4146 84.4839 47.0661 85.1138 47.7995 85.5625H47.8038Z" fill="url(#paint1_linear_1_662)"/>
<path d="M84.3298 92.1032C84.5714 92.457 85.046 92.595 85.8571 92.3577C88.8859 91.4776 90.5297 88.9148 92.2511 86.4987C92.7559 85.7868 93.2693 85.0663 93.6102 84.2639C93.7569 83.923 93.8734 83.5563 93.8388 83.1852C93.6706 81.2524 90.7066 81.8693 89.7056 82.5726C88.9765 83.0817 88.4113 83.785 87.8375 84.4666C86.9185 85.5582 85.9607 86.6282 85.2143 87.8448C84.6405 88.7811 83.6913 91.1756 84.3255 92.1032H84.3298Z" fill="#151A59"/>
<path d="M79.6229 18.9864C81.2235 19.983 83.5059 19.6853 84.8045 18.3177C87.3371 20.1729 91 20.3239 93.6793 18.6844C95.0944 19.3402 96.5398 20.0046 98.0843 20.2117C99.6289 20.4188 101.324 20.1038 102.446 19.0166C104.556 16.9759 102.912 12.9289 99.7885 13.6667C97.4976 7.60926 89.6712 4.38638 83.7906 7.07427C83.0658 5.44341 80.5462 5.02491 79.3338 6.32787C77.608 2.46214 72.7672 0.921887 68.8239 0.97366C66.8004 0.999547 65.0574 1.46551 63.3445 2.63472C62.9605 2.8979 59.1423 6.67734 59.7118 6.97072C58.1888 6.19844 56.2861 6.23295 54.7933 7.05701C53.3005 7.88106 52.2564 9.4774 52.0925 11.1773C50.975 11.0694 49.8231 11.3671 48.8955 12.0013C46.9454 13.3431 47.489 15.8584 49.7972 16.4021C51.1088 16.7084 52.4678 16.3028 53.7535 15.9016C55.4879 19.0382 60.1691 20.0305 63.0253 17.8647C65.0099 20.2505 67.9912 21.7735 71.0846 21.9806C74.1781 22.1877 77.3362 21.0789 79.6229 18.9821V18.9864Z" fill="#B0DFFF"/>
<path d="M20.0451 59.788C20.5715 59.2876 21.1625 58.8561 21.8011 58.5067C24.5709 57.0009 27.9146 57.3418 30.7104 58.5843C33.9505 60.0253 36.2846 63.0886 37.4581 66.4409C39.5118 63.9644 43.1748 63.2223 46.2725 64.0852C49.3703 64.9481 51.9331 67.1873 53.8573 69.7673C55.0869 67.3944 58.0639 66.0828 60.6396 66.7904C61.5413 64.0334 64.2508 61.9711 67.1414 61.8374C70.0364 61.7037 72.9185 63.5157 74.0661 66.1777C75.2008 64.3182 77.8887 64.4951 80.0502 64.7496C82.2117 65.0042 85.0334 64.6806 85.6029 62.5795C85.8143 66.0267 81.694 68.0329 78.2554 68.2961C74.8168 68.5593 70.9252 68.1969 68.3883 70.5353C65.5278 73.1714 65.9463 77.8267 64.0609 81.2308C62.2963 84.4191 58.34 86.2226 54.7806 85.4589C54.7547 89.4239 53.1325 93.35 50.354 96.1716C48.7231 97.8284 46.622 99.1356 44.3095 99.36C42.0228 99.58 39.0545 98.825 37.8378 96.7368C34.6322 97.3624 31.2799 97.2287 28.1347 96.3442C25.9947 95.7445 23.8202 94.6918 22.6898 92.7719C21.6803 91.0633 21.663 88.9493 20.908 87.1113C19.4885 83.6512 15.7868 81.7614 13.5174 78.7931C11.7916 76.5323 10.9373 73.5295 11.5931 70.7596C12.2489 67.9898 14.5485 65.5866 17.3572 65.1552C17.5772 63.1188 18.5653 61.1902 20.0494 59.7837L20.0451 59.788Z" fill="#B0DFFF"/>
<g clip-path="url(#clip1_1_662)">
<path d="M88.2654 29.7176C87.4807 29.8088 86.6909 29.9605 85.9062 30.1762C78.8931 32.104 74.6885 38.3237 70.9851 45.0068C64.386 41.1557 57.5931 37.9589 50.58 39.8867C49.7953 40.1024 49.0388 40.3757 48.3178 40.6985C41.3332 43.8175 37.4683 51.6693 39.5568 59.2673C41.6454 66.8653 48.9806 71.6384 56.5782 70.749C57.3629 70.6578 58.1527 70.5061 58.9374 70.2904C65.9505 68.3627 70.155 62.1429 73.8585 55.4598C80.4568 59.308 87.2505 62.5077 94.2636 60.5799C95.0483 60.3642 95.8047 60.0909 96.5258 59.7681C103.507 56.647 107.375 48.7944 105.287 41.1993C103.199 33.6042 95.863 28.8282 88.2654 29.7176ZM56.9475 63.0515C52.5578 64.2581 48.0025 61.6672 46.7958 57.2774C45.5891 52.8877 48.1801 48.3324 52.5698 47.1257C56.9595 45.919 61.9704 48.4222 67.4095 51.6111C64.3646 57.1321 61.2504 61.8687 56.9475 63.0515ZM92.2738 53.3409C87.9709 54.5237 82.8732 52.0444 77.4341 48.8555C80.479 43.3345 83.5932 38.5979 87.896 37.4151C92.1989 36.2324 96.8411 38.7995 98.0478 43.1892C99.2544 47.5789 96.6635 52.1342 92.2738 53.3409Z" fill="#ECF0F1"/>
<path d="M70.9854 45.0069C69.235 43.9869 67.4718 43.011 65.6949 42.1664C65.0517 43.3274 64.4303 44.4886 63.8187 45.6284C63.2755 46.6435 62.7009 47.714 62.1143 48.7753C63.8311 49.5709 65.6024 50.554 67.4106 51.6142C67.9782 50.5861 68.5445 49.5304 69.1141 48.4644C69.7313 47.3106 70.3505 46.1531 70.9861 45.0098L70.9854 45.0069Z" fill="url(#paint2_linear_1_662)"/>
<path d="M73.8586 55.4599C75.609 56.4798 77.3722 57.4558 79.1491 58.3003C79.7923 57.1394 80.4136 55.9782 81.0253 54.8384C81.5685 53.8233 82.1431 52.7528 82.7297 51.6915C81.0129 50.8959 79.2416 49.9128 77.4334 48.8526C76.8658 49.8807 76.2995 50.9364 75.7299 52.0024C75.1127 53.1562 74.4935 54.3137 73.8578 55.457L73.8586 55.4599Z" fill="url(#paint3_linear_1_662)"/>
</g>
<path d="M11.3987 93.0954C12.9519 92.8753 14.4145 92.2627 15.4845 91.0072C17.1412 89.0571 17.2749 85.9765 15.3507 84.1602C11.0794 80.1262 1.01817 85.4157 4.42226 91.1754C5.06511 92.2627 6.35513 92.7977 7.602 93.0004C8.81867 93.1989 10.1389 93.2766 11.3987 93.0954Z" fill="#B0DFFF"/>
<path d="M0.0518159 78.1801C0.280481 79.1077 1.31594 79.6944 2.26512 79.5952C3.21429 79.496 4.03835 78.8359 4.53882 78.0205C5.0393 77.205 5.2205 76.0401 4.54314 75.3628C4.32742 75.147 4.05129 75.009 3.76223 74.9184C2.26512 74.4567 0.539347 75.5181 0.103589 77.0281C-0.00427172 77.4035 -0.0431016 77.8047 0.0475015 78.1801H0.0518159Z" fill="url(#paint4_linear_1_662)"/>
<mask id="mask0_1_662" style="mask-type:alpha" maskUnits="userSpaceOnUse" x="28" y="4" width="98" height="98">
<ellipse cx="77.169" cy="52.9671" rx="48.7095" ry="48.7095" fill="#100F48"/>
</mask>
<g mask="url(#mask0_1_662)">
<g clip-path="url(#clip2_1_662)">
<path d="M71.592 104.095C96.5494 104.095 116.781 83.8303 116.781 58.8324C116.781 33.8345 96.5494 13.5697 71.592 13.5697C46.6346 13.5697 26.4026 33.8345 26.4026 58.8324C26.4026 83.8303 46.6346 104.095 71.592 104.095Z" fill="url(#paint5_linear_1_662)"/>
<path d="M41.1665 45.2377C44.2427 45.6993 47.6554 38.8264 48.747 36.6519C49.0404 36.0652 49.3208 35.4525 49.3683 34.8011C49.4157 34.1453 49.1827 33.4377 48.6348 33.0753C47.9963 32.6525 47.1463 32.8164 46.4086 33.0106C45.9383 33.1357 45.468 33.2694 45.002 33.4118C42.9829 34.0245 40.8602 34.9089 39.7816 36.7296C38.7289 38.5028 38.1292 44.7803 41.1708 45.242L41.1665 45.2377Z" fill="#151A59"/>
<path d="M62.3851 26.0554C62.3377 25.9993 62.2859 25.9475 62.2298 25.9043C61.9537 25.6843 61.5999 25.5851 61.2591 25.5074C59.4643 25.0975 57.4279 25.1536 55.9782 26.2926C55.577 26.6076 55.2102 27.1124 55.3958 27.587C55.4864 27.8286 55.7064 27.9968 55.9221 28.1392C56.5175 28.5189 57.4408 28.9935 58.1656 28.9935C58.6359 28.9935 59.0932 28.8382 59.5376 28.6872C60.2926 28.4283 60.9786 27.971 61.7121 27.6344C62.0918 27.4619 62.5103 27.2375 62.6138 26.8319C62.6828 26.5601 62.5793 26.2711 62.3938 26.0554H62.3851Z" fill="#151A59"/>
<path d="M33.9357 60.899C34.4103 61.8481 35.0186 62.7801 35.929 63.328C36.0843 63.4229 36.2569 63.5049 36.4381 63.4919C36.8091 63.4661 37.0292 63.0648 37.15 62.711C37.2967 62.2839 37.4088 61.8395 37.4822 61.3951C37.6116 60.6272 37.6246 59.8204 37.3829 59.0783C37.137 58.3362 36.6063 57.6675 35.8772 57.387C35.1481 57.1066 34.2334 57.2921 33.7631 57.9134C33.4439 58.3319 33.3576 58.8928 33.4266 59.4148C33.4956 59.9369 33.707 60.4287 33.9443 60.899H33.9357Z" fill="#151A59"/>
<path d="M83.4696 32.5874C83.4221 32.7082 83.3833 32.8333 83.3488 32.9584C82.8483 34.8827 84.147 36.794 85.5319 38.222C89.7773 42.6055 97.0083 41.7556 102.056 39.1108C103.251 38.4852 104.485 37.385 104.291 36.0476C104.153 35.1027 103.342 34.4167 102.557 33.8731C98.7815 31.2672 94.2341 29.8003 89.6479 29.7097C88.3708 29.6838 87.0635 29.7701 85.8857 30.2662C84.8286 30.7106 83.8838 31.526 83.4653 32.5874H83.4696Z" fill="#151A59"/>
<path d="M86.0842 50.1905C89.2165 49.9791 89.2381 45.8675 86.7832 44.379C85.1911 43.4126 81.5066 43.0717 81.4592 45.7337C81.4419 46.6915 81.9424 47.5846 82.5421 48.331C83.31 49.2802 84.3585 50.1172 85.5751 50.1905C85.752 50.1992 85.9203 50.1992 86.0842 50.1905Z" fill="#151A59"/>
<path d="M53.8122 72.2199C57.0912 75.6628 61.2633 78.2471 65.802 79.645C66.6865 79.9168 67.6184 80.1455 68.5288 79.9729C69.1759 79.8478 69.7713 79.5242 70.2977 79.1273C72.5239 77.4403 73.4688 74.5367 73.7881 71.7626C74.0814 69.2127 73.7535 67.5172 71.441 66.1624C67.0619 63.5997 61.7163 63.6816 57.0049 65.334C55.7451 65.7741 54.4853 66.3695 53.6138 67.3834C52.7423 68.3973 52.3453 69.916 52.9494 71.1068C53.1608 71.5253 53.48 71.879 53.8079 72.2199H53.8122Z" fill="#151A59"/>
<path d="M45.6147 89.4433C46.9781 90.2717 48.6219 90.4701 49.8903 89.1154C50.2959 88.6796 50.559 88.1274 50.7489 87.5579C51.0077 86.7856 51.1415 85.9443 50.9387 85.1547C50.6151 83.9036 49.4891 83.2866 48.2595 83.265C47.2111 83.2435 46.154 83.4462 45.1876 83.8475C44.1737 84.2703 43.1512 85.0987 43.1684 86.1988C43.1771 86.7425 43.4489 87.2516 43.7595 87.6959C44.2255 88.3647 44.8769 88.9946 45.6104 89.4433H45.6147Z" fill="url(#paint6_linear_1_662)"/>
<path d="M82.1407 95.984C82.3823 96.3377 82.8569 96.4758 83.668 96.2385C86.6968 95.3584 88.3406 92.7956 90.062 90.3795C90.5668 89.6676 91.0802 88.9471 91.4211 88.1446C91.5677 87.8038 91.6842 87.4371 91.6497 87.066C91.4815 85.1332 88.5174 85.7501 87.5165 86.4534C86.7874 86.9625 86.2222 87.6657 85.6483 88.3474C84.7294 89.439 83.7716 90.5089 83.0252 91.7256C82.4513 92.6619 81.5022 95.0564 82.1364 95.984H82.1407Z" fill="#151A59"/>
<path d="M77.4338 22.8672C79.0344 23.8638 81.3167 23.5661 82.6154 22.1985C85.148 24.0537 88.8109 24.2047 91.4902 22.5652C92.9053 23.221 94.3506 23.8854 95.8952 24.0925C97.4398 24.2996 99.1353 23.9846 100.257 22.8974C102.367 20.8567 100.723 16.8097 97.5994 17.5475C95.3084 11.49 87.4821 8.26716 81.6015 10.9551C80.8767 9.3242 78.357 8.9057 77.1447 10.2087C75.4189 6.34292 70.5781 4.80267 66.6347 4.85445C64.6113 4.88033 62.8682 5.34629 61.1554 6.5155C60.7714 6.77868 56.9531 10.5581 57.5227 10.8515C55.9997 10.0792 54.097 10.1137 52.6042 10.9378C51.1114 11.7618 50.0673 13.3582 49.9034 15.0581C48.7859 14.9502 47.634 15.2479 46.7064 15.8821C44.7563 17.2239 45.2999 19.7392 47.6081 20.2828C48.9197 20.5892 50.2787 20.1836 51.5644 19.7824C53.2988 22.919 57.98 23.9113 60.8361 21.7454C62.8208 24.1313 65.802 25.6543 68.8955 25.8614C71.9889 26.0685 75.1471 24.9597 77.4338 22.8629V22.8672Z" fill="#B0DFFF"/>
<path d="M17.856 63.6688C18.3823 63.1684 18.9734 62.7369 19.612 62.3874C22.3818 60.8817 25.7255 61.2225 28.5213 62.4651C31.7614 63.9061 34.0955 66.9694 35.269 70.3217C37.3227 67.8452 40.9856 67.1031 44.0834 67.966C47.1812 68.8289 49.7439 71.0681 51.6682 73.6481C52.8978 71.2752 55.8748 69.9636 58.4505 70.6711C59.3522 67.9142 62.0616 65.8519 64.9523 65.7182C67.8473 65.5844 70.7293 67.3965 71.877 70.0585C73.0117 68.199 75.6996 68.3759 77.8611 68.6304C80.0226 68.885 82.8443 68.5614 83.4138 66.4603C83.6252 69.9075 79.5049 71.9137 76.0663 72.1769C72.6277 72.4401 68.7361 72.0776 66.1992 74.4161C63.3387 77.0522 63.7572 81.7075 61.8718 85.1115C60.1072 88.2999 56.1509 90.1033 52.5915 89.3397C52.5656 93.3046 50.9434 97.2308 48.1649 100.052C46.534 101.709 44.4329 103.016 42.1203 103.241C39.8337 103.461 36.8654 102.706 35.6487 100.618C32.4431 101.243 29.0908 101.109 25.9455 100.225C23.8056 99.6253 21.6311 98.5726 20.5007 96.6526C19.4912 94.9441 19.4739 92.8301 18.7189 90.9921C17.2994 87.5319 13.5976 85.6422 11.3283 82.6739C9.60248 80.4131 8.74822 77.4103 9.40402 74.6404C10.0598 71.8706 12.3594 69.4674 15.1681 69.036C15.3881 66.9996 16.3761 65.071 17.8603 63.6645L17.856 63.6688Z" fill="#B0DFFF"/>
<g clip-path="url(#clip3_1_662)">
<path d="M86.0765 33.5984C85.2918 33.6895 84.502 33.8412 83.7173 34.0569C76.7042 35.9847 72.4996 42.2045 68.7962 48.8875C62.1971 45.0364 55.4042 41.8397 48.3911 43.7675C47.6064 43.9832 46.85 44.2565 46.1289 44.5793C39.1443 47.6983 35.2794 55.55 37.3679 63.1481C39.4565 70.7461 46.7917 75.5191 54.3893 74.6298C55.174 74.5386 55.9638 74.3869 56.7485 74.1712C63.7616 72.2434 67.9662 66.0237 71.6696 59.3406C78.2679 63.1888 85.0616 66.3884 92.0747 64.4607C92.8594 64.245 93.6158 63.9716 94.3369 63.6489C101.318 60.5278 105.186 52.6752 103.098 45.0801C101.01 37.4849 93.6741 32.709 86.0765 33.5984ZM54.7586 66.9322C50.3689 68.1389 45.8136 65.5479 44.6069 61.1582C43.4003 56.7685 45.9912 52.2131 50.3809 51.0065C54.7707 49.7998 59.7815 52.303 65.2206 55.4919C62.1757 61.0129 59.0615 65.7495 54.7586 66.9322ZM90.0849 57.2217C85.782 58.4045 80.6843 55.9252 75.2452 52.7363C78.2901 47.2153 81.4043 42.4787 85.7072 41.2959C90.01 40.1132 94.6522 42.6802 95.8589 47.07C97.0655 51.4597 94.4746 56.015 90.0849 57.2217Z" fill="#ECF0F1"/>
<path d="M68.7962 48.8878C67.0458 47.8678 65.2827 46.8918 63.5058 46.0473C62.8626 47.2082 62.2412 48.3694 61.6296 49.5092C61.0864 50.5243 60.5117 51.5948 59.9252 52.6561C61.6419 53.4518 63.4133 54.4348 65.2214 55.495C65.7891 54.4669 66.3553 53.4112 66.925 52.3452C67.5421 51.1914 68.1614 50.034 68.797 48.8907L68.7962 48.8878Z" fill="url(#paint7_linear_1_662)"/>
<path d="M71.6695 59.3407C73.4199 60.3607 75.183 61.3367 76.9599 62.1812C77.6031 61.0203 78.2245 59.8591 78.8362 58.7193C79.3793 57.7042 79.954 56.6337 80.5405 55.5724C78.8238 54.7768 77.0524 53.7937 75.2443 52.7335C74.6767 53.7616 74.1104 54.8173 73.5407 55.8833C72.9236 57.0371 72.3043 58.1946 71.6687 59.3378L71.6695 59.3407Z" fill="url(#paint8_linear_1_662)"/>
</g>
<path d="M77.6065 60.8818C77.3304 60.4762 77.0672 60.0664 76.804 59.6608C74.4786 56.0626 70.0649 53.1762 66.5184 57.5424C66.773 55.4801 68.6411 53.9097 70.643 53.3704C77.0931 51.6273 83.3879 58.3967 89.9631 57.2016C92.6509 56.7097 94.9894 54.9192 97.6988 54.5396C100.49 54.1513 103.769 55.1911 105.879 53.3186C106.591 52.6844 107.035 51.8042 107.674 51.0923C110.849 47.5631 114.715 49.276 113.528 43.5335C112.592 38.999 110.077 34.6587 107.251 31.0173C109.067 28.6271 113.645 28.8471 115.125 31.4617C116.26 31.2762 117.468 31.0993 118.525 31.548C119.586 31.9967 120.354 33.3298 119.784 34.3351C122.55 34.2747 125.298 35.7545 126.769 38.1016C128.241 40.4486 128.379 43.5723 127.123 46.0358C129.751 46.0056 131.571 49.125 131.002 51.6964C130.432 54.2634 128.206 56.1532 125.842 57.3051C126.877 61.6239 122.968 65.7053 118.788 67.1852C113.019 69.2259 106.211 67.979 101.539 64.0227C100.766 67.2715 96.9826 69.2302 93.7123 68.5701C90.442 67.91 87.8749 65.1315 86.7704 61.9776C86.7186 64.2859 83.6338 65.4594 81.5025 64.5749C79.8198 63.876 78.6377 62.4134 77.5979 60.8775L77.6065 60.8818Z" fill="#B0DFFF"/>
<path d="M128.832 74.4593C129.388 73.5274 129.85 72.5351 130.777 71.8491C132.344 70.6971 134.535 70.7403 136.209 69.7436C138.6 68.3242 139.674 65.0366 138.591 62.4738C138.142 61.4168 137.353 60.4805 136.313 59.9973C135.502 59.6177 134.578 59.5271 133.69 59.6177C131.442 59.855 129.367 61.3175 128.383 63.354C127.861 64.4326 127.632 65.6536 126.998 66.6674C126.131 68.0524 124.629 68.8851 123.18 69.6315C121.73 70.3779 120.211 71.1501 119.249 72.4704C118.287 73.7906 118.11 75.8442 119.318 76.9401C120.004 77.5614 120.979 77.7555 121.903 77.7987C123.974 77.9022 126.342 77.2335 127.852 75.7493C128.245 75.361 128.547 74.9123 128.823 74.4507L128.832 74.4593Z" fill="#B0DFFF"/>
<path d="M100.96 107.098C102.393 106.675 103.773 106.024 105.003 105.234C106.375 104.354 107.725 103.202 108.114 101.619C108.351 100.656 108.234 99.5519 108.851 98.7797C109.261 98.2662 109.917 98.0203 110.396 97.5673C111.656 96.3808 111.302 94.3272 111.729 92.6489C111.953 91.7687 112.419 90.9403 112.484 90.0343C112.626 88.0497 110.685 86.367 108.709 86.229C106.729 86.0909 104.839 87.135 103.35 88.4509C101.862 89.7668 100.645 91.3675 99.1698 92.6963C94.7173 96.7001 87.9134 97.796 82.3866 95.5007C78.3656 93.831 75.2592 91.6738 70.7765 93.3521C67.8901 94.435 65.2454 97.4206 62.3461 96.3765C65.2238 99.1162 69.0335 95.1771 71.0354 99.91C71.6825 101.446 71.8551 103.15 72.4893 104.69C73.5981 107.378 76.1911 109.393 79.0645 109.803C81.9379 110.213 84.9882 109.005 86.8046 106.735C88.2456 108.487 91.4469 108.211 92.573 106.244C95.0107 107.896 98.0825 107.952 100.96 107.098Z" fill="#B0DFFF"/>
</g>
</g>
</g>
<defs>
<linearGradient id="paint0_linear_1_662" x1="109.56" y1="84.622" x2="38.8038" y2="25.9457" gradientUnits="userSpaceOnUse">
<stop stop-color="#212562"/>
<stop offset="0.41" stop-color="#3F389C"/>
<stop offset="0.57" stop-color="#393EBE"/>
</linearGradient>
<linearGradient id="paint1_linear_1_662" x1="49.5986" y1="85.3166" x2="48.0756" y2="69.4999" gradientUnits="userSpaceOnUse">
<stop offset="0.08" stop-color="#FF7876"/>
<stop offset="1" stop-color="#FFFC87"/>
</linearGradient>
<linearGradient id="paint2_linear_1_662" x1="63.8737" y1="45.3641" x2="80.9766" y2="55.0918" gradientUnits="userSpaceOnUse">
<stop stop-color="#ECF0F1"/>
<stop offset="0.5" stop-color="#95A5A6"/>
<stop offset="1" stop-color="#ECF0F1"/>
</linearGradient>
<linearGradient id="paint3_linear_1_662" x1="63.8674" y1="45.375" x2="80.9703" y2="55.1027" gradientUnits="userSpaceOnUse">
<stop stop-color="#ECF0F1"/>
<stop offset="0.5" stop-color="#95A5A6"/>
<stop offset="1" stop-color="#ECF0F1"/>
</linearGradient>
<linearGradient id="paint4_linear_1_662" x1="4.27174e-05" y1="77.205" x2="4.98753" y2="77.205" gradientUnits="userSpaceOnUse">
<stop offset="0.07" stop-color="white"/>
<stop offset="1" stop-color="#FFF3D8"/>
</linearGradient>
<linearGradient id="paint5_linear_1_662" x1="107.372" y1="88.5028" x2="36.6149" y2="29.8265" gradientUnits="userSpaceOnUse">
<stop stop-color="#212562"/>
<stop offset="0.41" stop-color="#3F389C"/>
<stop offset="0.57" stop-color="#393EBE"/>
</linearGradient>
<linearGradient id="paint6_linear_1_662" x1="47.4095" y1="89.1974" x2="45.8865" y2="73.3807" gradientUnits="userSpaceOnUse">
<stop offset="0.08" stop-color="#FF7876"/>
<stop offset="1" stop-color="#FFFC87"/>
</linearGradient>
<linearGradient id="paint7_linear_1_662" x1="61.6846" y1="49.245" x2="78.7875" y2="58.9726" gradientUnits="userSpaceOnUse">
<stop stop-color="#ECF0F1"/>
<stop offset="0.5" stop-color="#95A5A6"/>
<stop offset="1" stop-color="#ECF0F1"/>
</linearGradient>
<linearGradient id="paint8_linear_1_662" x1="61.6782" y1="49.2559" x2="78.7811" y2="58.9836" gradientUnits="userSpaceOnUse">
<stop stop-color="#ECF0F1"/>
<stop offset="0.5" stop-color="#95A5A6"/>
<stop offset="1" stop-color="#ECF0F1"/>
</linearGradient>
<clipPath id="clip0_1_662">
<rect width="141.203" height="105.026" fill="white" transform="translate(0 0.973839)"/>
</clipPath>
<clipPath id="clip1_1_662">
<rect width="68.168" height="31.5315" fill="white" transform="translate(35.3781 44.0654) rotate(-15.37)"/>
</clipPath>
<clipPath id="clip2_1_662">
<rect width="141.203" height="105.026" fill="white" transform="translate(-2.18912 4.85457)"/>
</clipPath>
<clipPath id="clip3_1_662">
<rect width="68.168" height="31.5315" fill="white" transform="translate(33.1892 47.9462) rotate(-15.37)"/>
</clipPath>
</defs>
</svg>
