<svg width="101" height="156" viewBox="0 0 101 156" fill="none" xmlns="http://www.w3.org/2000/svg">
<circle cx="44.5" cy="111.021" r="44.5" fill="#100F48"/>
<g clip-path="url(#clip0_5_963)">
<path d="M64.2096 127.017C64.2096 127.017 68.1056 125.201 68.7254 125.113C69.3009 125.024 75.4105 125.113 77.0042 125.688C78.598 126.264 80.1033 129.673 79.7048 129.983C79.2621 130.293 76.6501 129.983 73.4182 129.761C70.1421 129.54 63.2799 127.946 64.2982 127.017H64.2096Z" fill="#776333"/>
<path d="M54.0271 123.696C54.0271 123.696 45.394 121.438 37.248 124.183C29.1019 126.884 29.4118 129.451 23.7007 131.222C17.9454 132.993 -5.0318 136.314 7.89563 137.465C20.8231 138.571 20.646 140.652 19.5392 141.759C18.4324 142.866 9.79933 144.327 22.9038 145.744C36.0084 147.16 40.4798 147.957 50.5296 147.337C60.5793 146.718 68.5483 143.84 65.3607 141.892C62.1731 139.988 73.8167 139.811 84.0435 139.811C94.2703 139.811 109.588 138.394 95.0672 134.233C80.546 130.071 75.1006 128.168 68.1056 127.371C61.0663 126.574 57.2589 124.67 54.0714 123.696H54.0271Z" fill="#F9BE18"/>
<path d="M85.9035 137.288C85.9035 137.288 85.4165 137.642 84.7524 137.642C84.0883 137.642 83.6013 137.465 83.6013 137.288C83.6013 137.111 84.1326 136.934 84.7524 136.934C85.3722 136.934 85.9035 137.111 85.9035 137.288Z" fill="#C18D0C"/>
<path opacity="0.45" d="M29.147 130.602C29.2355 130.159 28.5714 130.204 28.5714 130.204C28.3944 130.204 27.4204 130.204 26.0479 130.292C25.3839 130.602 24.587 130.912 23.6572 131.222C21.1337 131.975 15.3341 133.081 10.6413 134.144C9.93291 134.985 12.8106 135.206 14.1388 134.941C15.5555 134.631 18.7873 134.675 20.3368 134.41C21.8864 134.144 24.9854 133.701 26.6235 132.993C28.2615 132.329 29.0142 131.089 29.1027 130.691L29.147 130.602Z" fill="#3F3111"/>
<path opacity="0.3" d="M44.4207 123.785C44.4207 123.785 38.7539 124.449 36.9387 125.379C35.1236 126.308 27.5973 128.655 31.6261 128.876C35.6991 129.097 37.2929 127.991 41.7644 128.876C46.2801 129.761 49.2463 131.178 53.9392 130.381C58.632 129.584 57.9237 128.212 52.2126 125.6C46.5015 122.988 45.7489 124.139 44.3764 123.785H44.4207Z" fill="#3F3111"/>
<path d="M87.3203 134.587C85.0181 134.941 86.8333 135.738 90.9506 136.181C93.784 136.491 98.5653 136.756 99.9821 136.092C99.0523 135.561 97.4585 134.897 95.0236 134.233C80.5024 130.071 75.0569 128.168 68.0619 127.371C63.0149 126.795 59.606 125.644 56.9054 124.67C54.6475 124.36 51.8141 124.095 53.7178 124.936C56.684 126.22 59.6502 127.769 62.3508 128.92C65.0514 130.071 69.1687 130.426 66.6452 131.444C64.1217 132.462 69.3458 133.17 73.1532 132.462C77.0049 131.754 80.3253 131.444 82.8045 132.019C85.2837 132.595 89.7109 134.189 87.3645 134.543L87.3203 134.587Z" fill="#FFDB75"/>
<path opacity="0.45" d="M37.6026 133.126C37.6026 133.126 34.415 132.993 33.2639 134.41C32.1129 135.871 41.2329 139.634 42.9152 141.095C44.5976 142.556 50.53 142.6 53.8062 141.981C57.0823 141.316 61.0668 139.236 60.0928 137.863C59.1188 136.491 38.3995 133.215 37.6026 133.17V133.126Z" fill="#3F3111"/>
<g opacity="0.39">
<path d="M65.4936 141.98C65.4936 142.246 65.2722 142.6 64.8295 143.087C63.8112 144.238 59.8267 144.725 55.8423 145.123C51.8578 145.522 48.8473 145.345 43.0476 144.548C37.2037 143.751 32.5994 145.699 23.258 144.725C18.7866 144.238 17.1042 143.662 16.6172 143.131C15.0235 143.928 14.8021 144.813 22.9039 145.743C36.0084 147.16 40.4799 147.957 50.5296 147.337C60.4023 146.717 68.2384 143.928 65.5378 142.024L65.4936 141.98Z" fill="#3F3111"/>
<path d="M19.8935 141.272C20.2034 141.184 20.5575 141.095 20.9117 141.006C22.4612 140.475 27.7739 138.749 28.0838 138.306C28.3494 137.863 23.5238 138.262 20.1591 137.996C16.7944 137.775 8.42701 136.668 6.12486 136.137C5.37224 135.959 5.1066 135.782 5.06233 135.65C3.29145 136.402 3.55708 137.022 7.94001 137.376C19.3179 138.35 20.5575 140.077 19.9377 141.272H19.8935Z" fill="#3F3111"/>
<path d="M100.468 136.402C99.8486 137.332 96.9266 138.04 93.3406 138.04C88.0722 138.04 85.1503 136.181 80.5902 135.207C76.0302 134.233 71.0718 137.288 64.608 136.712C58.1443 136.137 61.2434 139.9 63.5898 140.741C64.1211 140.918 64.5195 141.095 64.8294 141.272C64.8294 139.9 74.9677 139.767 84.0435 139.767C92.1895 139.767 103.567 138.837 100.513 136.402H100.468Z" fill="#3F3111"/>
</g>
<path d="M24.0107 -0.000283643C24.0107 -0.000283643 34.8131 15.0522 33.7949 28.1125C32.7766 41.1727 28.5708 48.6989 24.3207 58.5273C20.0705 68.3114 16.1303 87.614 21.0445 101.338C25.9587 115.063 39.9929 122.279 46.2353 125.201C52.4334 128.123 57.6575 128.123 57.6575 128.123C57.6575 128.123 40.9669 121.261 35.7428 107.846C30.5187 94.4319 33.1308 77.4315 41.9409 63.0431C50.751 48.6547 61.8633 12.0417 23.9665 -0.0445557L24.0107 -0.000283643Z" fill="url(#paint0_linear_5_963)"/>
<path opacity="0.3" d="M30.4743 44.0506C35.4328 34.9306 38.6646 27.67 33.5291 14.9196C29.6331 5.09124 26.1356 1.46093 24.0991 0.088501C24.9403 1.28385 34.7687 15.5837 33.839 28.1127C33.352 34.4436 32.1124 39.4463 30.5186 44.0506H30.4743Z" fill="#1E3818"/>
<path opacity="0.68" d="M38.0896 14.6543C38.0896 14.6543 44.1106 24.527 42.2069 36.569C40.3032 48.611 32.2014 60.6972 27.5528 66.7182C22.9043 72.7392 20.6907 88.8985 24.1439 100.011C27.5528 111.123 37.5583 121.527 51.5483 126.441C51.5483 126.441 27.5528 116.569 24.1439 93.8127C20.7349 71.0569 34.0165 59.0149 38.1338 52.8611C42.2511 46.7073 44.996 37.3659 44.022 30.1053C43.048 22.8446 38.1338 14.61 38.1338 14.61L38.0896 14.6543Z" fill="#1E3818"/>
<path opacity="0.3" d="M35.7876 107.891C30.5635 94.4768 33.1755 77.4764 41.9856 63.088C47.6967 53.7908 54.3375 35.1523 48.0952 19.9227C50.7958 30.2381 48.0952 42.5015 46.28 49.098C44.0222 57.2883 39.9049 60.0332 36.2746 70.3486C32.6442 80.6639 29.8994 89.4741 26.8446 86.2865C23.7898 83.0989 26.4019 69.5959 26.4019 69.5959C26.4019 69.5959 23.9669 74.5987 23.2143 79.9113C22.4617 85.1354 21.4434 94.5211 18.9199 89.8283C19.1413 93.857 19.8496 97.7972 21.0893 101.339C26.0034 115.063 40.0377 122.28 46.28 125.202C52.4781 128.124 57.7022 128.124 57.7022 128.124C57.7022 128.124 41.0117 121.261 35.7876 107.847V107.891Z" fill="#1E3818"/>
<path opacity="0.32" d="M37.3367 8.23482C37.3367 8.23482 34.6804 7.26083 37.3367 11.4224C39.993 15.584 43.3134 26.3421 45.2171 26.4749C47.1208 26.5634 47.5636 21.6935 46.0583 18.1517C44.5531 14.6543 40.5243 9.2088 37.3367 8.23482Z" fill="#FFF68A"/>
<path d="M43.8003 16.7787C43.8003 16.7787 42.4722 16.6459 43.1805 18.3725C43.8889 20.0991 44.0217 22.0471 44.9071 21.4273C45.7483 20.8075 44.9071 17.974 43.8003 16.7787Z" fill="#FFF68A"/>
<path opacity="0.21" d="M36.0528 45.9543C36.0528 45.9543 33.0866 44.1392 29.1464 50.4258C25.2062 56.7124 22.0186 65.7882 23.8337 66.408C25.6489 67.0278 29.1464 63.5303 32.3782 57.775C35.5658 52.0196 38.6649 46.4856 36.0971 45.9543H36.0528Z" fill="#FFF68A"/>
<path opacity="0.21" d="M36.7163 57.9076C36.7163 57.9076 33.086 60.8738 29.9869 67.0719C26.8879 73.27 31.138 78.3613 34.4584 70.2595C37.7788 62.1577 41.5862 53.4361 36.7163 57.9076Z" fill="#FFF68A"/>
<path d="M40.7455 11.2007C40.7455 11.2007 38.7975 10.3595 39.7715 12.3075C40.7455 14.2555 41.6309 15.8493 42.4721 15.6279C43.3133 15.3623 42.6049 12.7945 40.7455 11.2007Z" fill="#FFF68A"/>
<path d="M29.3238 51.1337C29.3238 51.1337 26.6232 55.0739 27.2431 56.889C27.8629 58.7485 30.4306 55.5609 31.2718 53.4358C32.113 51.355 31.4046 48.7873 29.3238 51.0894V51.1337Z" fill="#FFF68A"/>
<path d="M64.2097 39.1365C64.2097 39.1365 70.4078 54.4989 62.5717 63.6632C54.7355 72.8275 46.2353 90.1379 47.2093 102.578C48.1833 115.019 52.7433 122.191 56.9934 128.079C56.9934 128.079 51.4594 108.466 59.2955 100.276C67.1317 92.0858 76.296 83.5856 77.5799 68.8873C78.9081 54.189 72.3558 44.0507 64.1655 39.1365H64.2097Z" fill="url(#paint1_linear_5_963)"/>
<path opacity="0.68" d="M66.4679 42.2347C66.4679 42.2347 73.5957 51.9303 71.6035 63.4853C69.6555 75.0403 62.8819 79.6889 59.4287 82.5223C55.9754 85.3557 49.3789 95.2726 49.3789 105.588C49.3789 115.903 53.5405 121.172 56.2411 125.732C56.2411 125.732 47.5195 111.875 50.9727 102.268C54.4259 92.7048 54.1603 89.5173 63.3689 80.53C72.5774 71.5428 77.0046 59.1909 71.205 49.2297C67.3533 42.5889 66.4236 42.2347 66.4236 42.2347H66.4679Z" fill="#1E3818"/>
<path opacity="0.3" d="M77.6242 68.8874C77.8013 66.6738 77.8456 64.593 77.7128 62.645C77.3143 66.8509 76.3846 71.588 75.0565 75.5725C72.4887 83.3201 62.3947 93.6354 60.7123 91.289C58.9857 88.9426 62.4389 82.7003 66.7333 77.9189C71.0277 73.1375 71.7803 66.3639 71.7803 66.3639C71.7803 66.3639 69.8324 72.252 66.2463 76.1923C62.7046 80.1325 56.2851 85.755 53.7173 83.6742C52.5663 82.7445 52.7876 80.3981 53.3632 78.0517C49.3787 86.1535 46.6338 95.2292 47.2094 102.578C48.1833 115.019 52.7434 122.191 56.9935 128.079C56.9935 128.079 51.4595 108.467 59.2956 100.276C67.1318 92.0859 76.2961 83.5857 77.58 68.8874H77.6242Z" fill="#1E3818"/>
<path opacity="0.21" d="M69.5224 56.0042C69.5224 56.0042 67.8843 52.8609 66.7775 58.3506C65.6707 63.8403 61.2878 65.744 59.9154 69.9941C58.5429 74.2443 63.767 77.1219 67.7515 69.5957C71.736 62.0694 70.6292 59.1918 69.5224 56.0042Z" fill="#FFF68A"/>
<path opacity="0.21" d="M75.5877 56.4025C75.5877 56.4025 74.4809 56.9337 74.6137 61.1838C74.7466 65.434 70.6293 72.8274 71.3376 76.2806C72.046 79.6896 74.6138 75.4394 75.7206 69.4184C76.8274 63.3974 77.2258 57.9077 75.5877 56.4025Z" fill="#FFF68A"/>
<path d="M68.327 56.4027C68.327 56.4027 66.866 56.7568 66.866 60.0772C66.866 63.3976 67.7072 63.3976 68.814 60.9184C69.9208 58.4834 69.4338 56.137 68.327 56.4027Z" fill="#FFF68A"/>
<path d="M75.8093 58.4391C75.8093 58.4391 74.7025 58.5276 75.1452 61.0511C75.588 63.5746 76.4734 61.4939 76.4734 60.6084C76.4734 59.723 76.3849 58.4391 75.8093 58.4391Z" fill="#FFF68A"/>
<path d="M41.9858 72.8718C41.9858 72.8718 43.9338 79.424 40.3478 85.932C36.7617 92.4843 31.1834 103.242 36.0976 112.407C41.0118 121.571 57.6581 128.079 57.6581 128.079C57.6581 128.079 40.9676 121.527 45.5719 101.604C50.1761 81.6819 42.9598 74.1557 41.9858 72.8275V72.8718Z" fill="url(#paint2_linear_5_963)"/>
<path opacity="0.68" d="M43.5795 77.1219C43.5795 77.1219 44.4207 84.6039 41.2331 90.0936C38.0455 95.6276 37.4257 101.383 38.5325 108.378C39.6393 115.373 45.1733 123.829 54.4704 126.884C54.4704 126.884 43.6681 121.748 40.6133 111.566C37.5585 101.383 41.1003 95.0078 42.8269 88.7654C44.5535 82.5231 44.4207 79.3355 43.5795 77.1219Z" fill="#1E3818"/>
<path opacity="0.21" d="M45.04 86.9503C45.04 86.9503 42.3394 90.2707 41.9852 93.8124C41.631 97.3542 40.3914 104.836 43.2248 102.136C46.0582 99.435 45.7926 92.0858 45.7926 90.005C45.7926 87.9243 46.4124 86.3305 45.04 86.9503Z" fill="#FFF68A"/>
<path d="M44.996 88.0124C44.996 88.0124 43.7564 88.765 43.3579 91.0671C42.9595 93.3693 43.4908 94.1219 44.5533 93.2365C45.6158 92.351 46.0585 87.2155 44.996 88.0124Z" fill="#FFF68A"/>
<path d="M72.1348 90.0933C72.1348 90.0933 71.8249 96.6455 67.5748 101.206C63.3246 105.766 58.7646 110.68 57.7906 118.516C56.8166 126.352 56.8167 127.99 56.8167 127.99C56.8167 127.99 61.0668 121.438 67.619 116.214C74.1713 110.99 77.4474 103.463 72.179 90.049L72.1348 90.0933Z" fill="url(#paint3_linear_5_963)"/>
<path opacity="0.68" d="M72.4887 95.9369C72.4887 95.9369 72.6215 103.286 69.1683 106.606C65.7594 109.927 60.2254 114.088 59.1186 117.896C58.0118 121.703 57.7904 126.972 57.7904 126.972C57.7904 126.972 59.517 117.055 62.926 114C66.3792 110.945 74.0825 107.138 72.4887 95.9812V95.9369Z" fill="#1E3818"/>
<path opacity="0.3" d="M74.7025 101.028C74.6583 102.489 74.4812 103.995 74.1713 105.234C73.1088 109.352 67.0878 114.664 66.3351 113.07C65.5382 111.521 70.6295 106.075 71.2051 104.26C71.8249 102.445 71.028 105.146 69.6555 106.341C68.2388 107.581 63.1918 111.565 62.085 110.635C61.4652 110.104 63.0147 107.138 64.5643 104.57C61.3767 108.289 58.5433 112.539 57.7906 118.516C56.8166 126.352 56.8167 127.99 56.8167 127.99C56.8167 127.99 61.0668 121.438 67.619 116.214C72.1348 112.628 75.0567 107.935 74.7468 100.984L74.7025 101.028Z" fill="#1E3818"/>
<path opacity="0.21" d="M71.3821 97.8861C71.3821 97.8861 70.8951 97.0449 68.9472 100.985C67.7961 103.332 67.5747 104.925 69.3899 104.04C71.205 103.154 72.3118 98.5502 71.3821 97.8861Z" fill="#FFF68A"/>
<path opacity="0.21" d="M73.4186 100.851C73.4186 100.851 73.2858 101.294 73.1973 102.755C73.1087 104.216 71.9576 106.739 73.1087 105.942C74.2598 105.145 74.2155 102.666 74.2155 101.205C74.2155 99.7441 73.6843 100.275 73.4186 100.851Z" fill="#FFF68A"/>
<path d="M70.8507 98.4168C70.8507 98.4168 69.9209 98.9923 69.6553 100.498C69.3897 102.003 70.0095 103.021 70.8949 101.073C71.7804 99.1251 71.559 97.9298 70.8064 98.3725L70.8507 98.4168Z" fill="#FFF68A"/>
<path d="M55.1341 126.397C55.1341 126.397 45.6599 126.264 42.6494 127.592C39.6389 128.92 35.8315 132.197 35.0346 133.879C34.2377 135.606 41.2327 140.564 45.6599 141.361C50.1314 142.158 56.418 140.962 58.1446 139.369C59.8712 137.775 61.6864 135.296 61.5536 133.967C61.4208 132.639 58.5431 127.017 55.1341 126.353V126.397Z" fill="#776333"/>
<path opacity="0.63" d="M54.7797 126.972C54.7797 126.972 42.782 126.884 43.4461 128.168C44.1102 129.496 50.264 132.241 50.9281 133.702C51.5921 135.163 47.9176 140.254 49.7327 140.121C51.5921 139.988 57.0819 139.324 59.0741 137.243C61.0663 135.163 62.483 133.967 59.4726 130.558C56.4621 127.149 54.7797 126.972 54.7797 126.972Z" fill="#9E854D"/>
<path d="M54.8689 127.504C54.8689 127.504 48.7594 131.356 50.4417 132.418C52.1683 133.525 54.072 133.614 55.7986 133.614C57.5252 133.614 60.093 133.348 60.58 132.772C61.0227 132.197 57.1268 127.991 56.1528 127.725C55.1788 127.46 54.8689 127.46 54.8689 127.46V127.504Z" fill="#C9A663"/>
<path d="M57.9232 131.621C57.9232 131.621 55.8424 132.108 56.0637 132.595C56.2851 133.082 57.8346 133.303 58.5872 133.082C59.3399 132.861 59.4727 131.665 57.9232 131.621Z" fill="#FFF68A"/>
<path d="M55.5769 132.817C55.5769 132.817 54.6915 132.595 54.116 132.994C53.5404 133.392 55.3113 133.702 56.0639 133.437C56.8608 133.215 55.7097 132.817 55.5769 132.773V132.817Z" fill="#FFF68A"/>
<path d="M78.5986 135.605C78.5986 135.605 71.4265 134.188 70.4082 134.852C69.39 135.516 65.8039 139.014 65.8925 140.12C65.981 141.227 67.7962 142.644 71.0723 143.22C74.3042 143.795 80.4137 143.131 81.7419 142.378C83.07 141.626 82.3174 139.191 82.096 138.394C81.8304 137.553 79.2626 135.87 78.5986 135.649V135.605Z" fill="#776333"/>
<path opacity="0.63" d="M78.5987 135.605C78.5987 135.605 71.7808 134.233 70.4969 134.808C71.3824 135.34 73.109 136.491 73.8174 137.465C74.7028 138.66 74.2601 141.715 73.2418 143.397C76.5179 143.53 80.6795 142.955 81.742 142.335C83.0702 141.582 82.3176 139.147 82.0962 138.35C81.8306 137.509 79.2628 135.827 78.5987 135.605Z" fill="#9E854D"/>
<path d="M75.7653 135.518C75.7653 135.518 71.161 135.163 72.2678 135.695C73.4189 136.226 73.9059 138.572 76.4294 138.661C78.9529 138.749 81.2108 139.104 81.565 138.395C81.9191 137.687 79.13 136.314 78.4216 136.049C77.7133 135.783 75.7211 135.518 75.7211 135.518H75.7653Z" fill="#C9A663"/>
<path d="M78.7318 136.756C78.7318 136.756 75.5885 136.756 77.0937 137.553C78.5547 138.35 79.7058 138.837 80.4141 138.35C81.1225 137.819 81.0339 137.022 78.776 136.8L78.7318 136.756Z" fill="#FFF68A"/>
<path d="M59.8713 139.988C59.8713 139.988 58.9859 142.157 55.3556 142.6C51.7253 143.043 45.66 143.087 48.9804 143.486C52.3008 143.84 55.7983 143.486 59.0744 143.486C62.3506 143.486 63.8558 142.689 63.4131 142.246C62.9704 141.803 60.801 139.545 59.8713 139.988Z" fill="#FFDB75"/>
<path d="M35.4335 138.483C35.4335 138.483 32.4673 137.465 31.2277 137.907C29.9881 138.35 26.0921 139.191 28.3057 139.28C30.5636 139.368 34.4595 139.59 36.2747 140.652C38.0898 141.759 37.7357 142.025 36.2747 142.689C34.8137 143.353 36.4961 143.131 38.9753 143.22C41.4545 143.309 46.0588 144.46 41.7202 141.715C37.3815 138.97 35.4335 138.527 35.4335 138.527V138.483Z" fill="#FFDB75"/>
<path d="M28.881 130.381C28.881 130.381 24.9851 126.706 23.3913 127.238C21.8418 127.769 12.9431 132.329 13.0759 133.48C13.2088 134.675 16.4849 134.277 20.1152 134.144C23.7455 134.011 29.2352 131.931 28.8368 130.381H28.881Z" fill="#776333"/>
<path opacity="0.63" d="M23.3918 127.238C23.3918 127.238 23.3033 127.238 23.259 127.238C22.9934 127.769 22.772 128.433 22.772 129.23C22.8606 130.868 21.8423 133.171 21.4438 133.967C24.9413 133.48 29.1915 131.71 28.8373 130.293C28.8373 130.293 24.9413 126.618 23.3475 127.15L23.3918 127.238Z" fill="#9E854D"/>
<path d="M23.3911 127.238C23.3911 127.238 23.3025 127.238 23.2582 127.238C22.9926 127.769 22.7712 128.433 22.7712 129.23C22.7712 129.318 22.7712 129.407 22.7712 129.495C22.9483 129.717 23.1254 129.894 23.3911 130.027C25.0291 130.735 27.8183 131.355 28.261 130.824C28.3495 130.691 28.4823 130.425 28.5266 130.115C27.5969 129.318 24.6307 126.795 23.3468 127.238H23.3911Z" fill="#C9A663"/>
<path d="M24.852 127.769C24.852 127.769 23.9223 127.282 23.5681 127.725C23.2139 128.167 24.5863 128.566 25.516 128.876C26.4458 129.186 25.6931 128.123 24.852 127.769Z" fill="#FFF68A"/>
<path d="M26.756 129.097C26.756 129.097 26.2247 128.876 26.1804 129.097C26.1804 129.363 26.933 129.939 27.3758 129.983C27.8185 130.027 27.6857 129.496 26.756 129.097Z" fill="#FFF68A"/>
<path d="M31.4049 142.601C31.4049 142.601 30.9179 142.955 30.2539 142.955C29.5898 142.955 29.1028 142.778 29.1028 142.601C29.1028 142.423 29.634 142.246 30.2539 142.246C30.8737 142.246 31.4049 142.423 31.4049 142.601Z" fill="#C18D0C"/>
<path d="M37.0709 129.982C37.0709 129.982 36.5397 130.337 35.9199 130.337C35.3001 130.337 34.7688 130.159 34.7688 129.982C34.7688 129.805 35.3001 129.628 35.9199 129.628C36.5397 129.628 37.0709 129.805 37.0709 129.982Z" fill="#C18D0C"/>
<path d="M23.3471 141.627C23.3471 141.627 22.9044 141.981 22.4174 141.981C21.9304 141.981 21.4877 141.804 21.4877 141.627C21.4877 141.45 21.9304 141.273 22.4174 141.273C22.9044 141.273 23.3471 141.45 23.3471 141.627Z" fill="#C18D0C"/>
<path d="M28.2618 133.746C28.2618 133.746 27.819 134.1 27.3321 134.1C26.8451 134.1 26.4023 133.923 26.4023 133.746C26.4023 133.569 26.8451 133.391 27.3321 133.391C27.819 133.391 28.2618 133.569 28.2618 133.746Z" fill="#C18D0C"/>
<path d="M20.6021 143.043C20.6021 143.043 20.2479 143.353 19.8052 143.353C19.3625 143.353 19.0083 143.22 19.0083 143.043C19.0083 142.866 19.3625 142.733 19.8052 142.733C20.2479 142.733 20.6021 142.866 20.6021 143.043Z" fill="#C18D0C"/>
<path d="M16.9717 136.093C16.9717 136.093 16.6175 136.403 16.1748 136.403C15.7321 136.403 15.3779 136.27 15.3779 136.093C15.3779 135.916 15.7321 135.783 16.1748 135.783C16.6175 135.783 16.9717 135.916 16.9717 136.093Z" fill="#C18D0C"/>
<path d="M34.5921 130.735C34.5921 130.735 34.2379 131.045 33.7952 131.045C33.3525 131.045 32.9983 130.912 32.9983 130.735C32.9983 130.558 33.3525 130.425 33.7952 130.425C34.2379 130.425 34.5921 130.558 34.5921 130.735Z" fill="#C18D0C"/>
<path d="M65.5381 131.09C65.5381 131.09 65.184 131.4 64.7412 131.4C64.2985 131.4 63.9443 131.267 63.9443 131.09C63.9443 130.913 64.2985 130.78 64.7412 130.78C65.184 130.78 65.5381 130.913 65.5381 131.09Z" fill="#C18D0C"/>
<path d="M63.7232 130.204C63.7232 130.425 63.2362 130.602 62.6164 130.602C61.9966 130.602 61.5096 130.425 61.5096 130.204C61.5096 129.983 61.9966 129.805 62.6164 129.805C63.2362 129.805 63.7232 129.983 63.7232 130.204Z" fill="#C18D0C"/>
<path d="M25.162 142.423C25.162 142.423 24.7193 142.777 24.2323 142.777C23.7453 142.777 23.3026 142.6 23.3026 142.423C23.3026 142.246 23.7453 142.069 24.2323 142.069C24.7193 142.069 25.162 142.246 25.162 142.423Z" fill="#FFDB75"/>
<path d="M31.7582 130.337C31.7582 130.337 31.3155 130.691 30.8285 130.691C30.3415 130.691 29.8988 130.514 29.8988 130.337C29.8988 130.16 30.3415 129.983 30.8285 129.983C31.3155 129.983 31.7582 130.16 31.7582 130.337Z" fill="#FFDB75"/>
<path d="M65.0954 132.595C65.0954 132.595 64.6527 132.949 64.1657 132.949C63.6787 132.949 63.236 132.772 63.236 132.595C63.236 132.418 63.6787 132.24 64.1657 132.24C64.6527 132.24 65.0954 132.418 65.0954 132.595Z" fill="#FFDB75"/>
<path d="M85.3276 134.808C85.3276 134.808 84.8848 135.162 84.3978 135.162C83.9109 135.162 83.4681 134.985 83.4681 134.808C83.4681 134.631 83.9109 134.454 84.3978 134.454C84.8848 134.454 85.3276 134.631 85.3276 134.808Z" fill="#FFDB75"/>
</g>
<defs>
<linearGradient id="paint0_linear_5_963" x1="38.1778" y1="130.071" x2="38.532" y2="1.59351" gradientUnits="userSpaceOnUse">
<stop offset="0.01" stop-color="#38A61F"/>
<stop offset="1" stop-color="#E07B00"/>
</linearGradient>
<linearGradient id="paint1_linear_5_963" x1="45.4384" y1="132.595" x2="85.0176" y2="12.9717" gradientUnits="userSpaceOnUse">
<stop offset="0.01" stop-color="#38A61F"/>
<stop offset="1" stop-color="#E07B00"/>
</linearGradient>
<linearGradient id="paint2_linear_5_963" x1="45.7047" y1="120.376" x2="49.6006" y2="52.1525" gradientUnits="userSpaceOnUse">
<stop offset="0.01" stop-color="#38A61F"/>
<stop offset="1" stop-color="#E07B00"/>
</linearGradient>
<linearGradient id="paint3_linear_5_963" x1="57.525" y1="127.105" x2="83.6455" y2="78.7154" gradientUnits="userSpaceOnUse">
<stop offset="0.01" stop-color="#38A61F"/>
<stop offset="1" stop-color="#E07B00"/>
</linearGradient>
<clipPath id="clip0_5_963">
<rect width="97" height="147.514" fill="white" transform="translate(4)"/>
</clipPath>
</defs>
</svg>
