<svg width="124" height="109" viewBox="0 0 124 109" fill="none" xmlns="http://www.w3.org/2000/svg">
<circle cx="70.5" cy="48.5" r="44.5" fill="#100F48"/>
<g clip-path="url(#clip0_5_1002)">
<path d="M95.6408 85.6617C95.6408 85.6617 79.6312 82.2311 77.1363 87.0132C74.6413 91.7953 76.6684 97.305 87.2202 95.018C87.2202 95.018 75.317 102.555 81.0347 107.129C86.7524 111.703 93.6136 106.921 96.3685 100.476C96.3685 100.476 93.6136 107.545 98.6556 107.805C103.698 108.013 106.452 105.726 106.66 98.6565C106.868 91.5873 102.294 86.0776 100.735 86.0776C99.1753 86.0776 97.0962 85.1419 95.6928 85.6098L95.6408 85.6617Z" fill="url(#paint0_linear_5_1002)"/>
<path opacity="0.3" d="M87.2202 95.0699C87.2202 95.0699 75.317 102.607 81.0347 107.181C86.7524 111.755 93.6136 106.973 96.3685 100.528C96.3685 100.528 93.6136 107.597 98.6556 107.857C103.698 108.065 106.452 105.778 106.66 98.7085C106.816 94.0823 104.945 90.1839 103.126 88.0008C102.866 88.3646 102.606 88.6245 102.45 88.7805C101.306 89.7681 106.296 94.6021 105.777 98.7604C105.257 102.919 102.762 105.258 100.423 105.102C98.0838 104.946 97.616 101.1 98.0838 98.7604C98.6036 96.4214 98.2397 97.6169 95.5888 99.904C92.9379 102.243 87.2722 106.921 83.8935 105.05C80.5669 103.231 87.74 96.3694 89.5592 95.0699C91.3785 93.7185 89.7152 93.7185 85.245 93.4066C80.7228 93.0947 76.0967 89.7681 82.4381 86.5974C88.7795 83.4266 97.2521 88.2607 97.2521 88.2607C98.2917 88.1567 99.2793 87.2731 100.163 86.0776C98.6556 85.9216 96.8883 85.2459 95.6408 85.6617C95.6408 85.6617 79.6312 82.2311 77.1363 87.0132C74.6413 91.7953 76.6684 97.305 87.2202 95.018V95.0699Z" fill="#350313"/>
<path d="M67.0537 58.2683C67.0537 58.2683 71.9917 57.2288 71.1081 59.9837C70.2244 62.6866 62.2197 68.3523 61.1801 69.9116C60.1405 71.471 52.9674 84.6737 52.3956 85.1415C51.8239 85.6093 51.6159 84.4658 54.1109 75.5774C56.6059 66.6889 57.6975 67.1048 60.7642 64.2979C63.831 61.491 66.5339 58.7881 67.0537 58.3203V58.2683Z" fill="#9B344F"/>
<path opacity="0.3" d="M67.0533 58.2685C66.5335 58.6844 64.2464 60.9714 61.5435 63.4664C62.5311 63.1546 63.5187 63.1546 63.3108 64.3501C62.947 66.7411 57.6451 70.1198 56.8654 73.0306C56.2417 75.4216 53.2789 82.2828 52.0314 84.9858C52.0834 85.1937 52.2393 85.1937 52.3432 85.0897C52.915 84.6219 60.1401 71.4192 61.1277 69.8599C62.1673 68.3005 70.172 62.6348 71.0557 59.9319C71.9393 57.229 67.0013 58.2166 67.0013 58.2166L67.0533 58.2685Z" fill="#350313"/>
<path d="M76.7738 62.2706C76.7738 62.2706 81.8157 61.8548 80.6202 64.4017C79.4247 67.0007 70.7962 71.6788 69.6526 73.1342C68.4571 74.5896 59.7766 86.8567 59.2049 87.2725C58.5811 87.6364 58.4772 86.4928 61.9597 77.9683C65.4423 69.3917 66.5339 69.9635 69.8606 67.5205C73.1872 65.0775 76.202 62.6864 76.8257 62.3226L76.7738 62.2706Z" fill="#9B344F"/>
<path opacity="0.3" d="M76.7733 62.2706C76.2015 62.6344 73.7066 64.6096 70.6918 66.8447C71.7314 66.6368 72.667 66.7408 72.3551 67.9363C71.7313 70.2753 66.1176 73.0302 64.9741 75.8371C64.0904 78.1242 60.3999 84.6216 58.7886 87.1685C58.7886 87.3764 58.9445 87.3764 59.1004 87.2725C59.7242 86.9086 68.4047 74.5896 69.5482 73.1342C70.7437 71.6788 79.3203 67.0007 80.5158 64.4017C81.7113 61.8028 76.6694 62.2706 76.6694 62.2706H76.7733Z" fill="#350313"/>
<path d="M94.7062 61.9594C94.7062 61.9594 99.7482 62.5311 98.0329 64.8182C96.3176 67.1053 87.0133 70.0161 85.5579 71.2116C84.1025 72.4071 73.1869 82.751 72.5112 83.0109C71.8354 83.2707 71.9914 82.1272 77.0333 74.3823C82.1273 66.6894 83.0629 67.4171 86.8054 65.7018C90.5479 63.9346 93.9785 62.2192 94.6542 61.9594H94.7062Z" fill="#9B344F"/>
<path opacity="0.3" d="M94.7065 61.9592C94.0828 62.1671 91.2239 63.6745 87.8973 65.2339C88.9369 65.2339 89.8725 65.5458 89.3007 66.5854C88.2611 68.7165 82.1796 70.3279 80.5163 72.8748C79.1648 74.954 74.2788 80.6197 72.2516 82.8028C72.2516 83.0107 72.3555 83.0627 72.5635 83.0107C73.2392 82.7508 84.1548 72.407 85.6102 71.2115C87.0656 70.016 96.4218 67.1052 98.0852 64.8181C99.7485 62.531 94.7585 61.9592 94.7585 61.9592H94.7065Z" fill="#350313"/>
<path d="M77.2928 22.2989C77.2928 22.2989 85.3496 21.7271 95.7454 24.8978C106.141 28.0166 106.817 33.4224 107.025 33.5264C107.233 33.6303 114.614 37.3208 118.772 42.7267C122.93 48.0805 123.45 54.162 122.463 56.5011C122.463 56.5011 124.022 63.6742 122.567 69.028C121.111 74.3819 109.832 89.6117 101.411 91.0671C92.9905 92.5226 96.9409 89.5078 98.1884 84.3619C98.1884 84.3619 100.216 77.7605 97.5126 70.7953C97.5126 70.7953 93.7182 70.8993 89.3519 68.0924C84.9857 65.2856 84.5179 63.9341 84.5179 63.9341C84.5179 63.9341 70.8474 65.4935 65.8054 62.6866C60.7635 59.8797 56.7611 59.1 57.4368 55.4095C58.1125 51.719 73.5503 35.3976 77.2408 22.2989H77.2928Z" fill="url(#paint1_linear_5_1002)"/>
<path opacity="0.3" d="M89.3525 68.0925C93.7187 70.8994 97.5132 70.7954 97.5132 70.7954C100.216 77.7606 98.1889 84.3619 98.1889 84.3619C96.9414 89.5078 93.043 92.5226 101.412 91.0672C105.206 90.3915 109.572 86.9609 113.367 82.8545C109.936 82.6466 106.869 80.3595 107.181 75.9933C107.701 68.4044 114.926 65.5975 119.188 62.9466C120.748 61.959 122.047 61.6471 123.087 61.6471C122.879 58.7363 122.411 56.5531 122.411 56.5531C123.191 54.7339 123.035 50.7835 121.06 46.5732C120.904 49.1721 120.436 53.5384 118.357 56.0334C115.446 59.6199 105.83 62.8426 101.152 61.6471C96.4736 60.4516 102.607 55.3576 106.61 46.7291C110.092 39.2441 108.637 36.1254 109.157 34.8259C107.909 34.0982 107.025 33.6304 106.973 33.6304C106.817 33.5264 106.402 30.5636 101.983 27.8087C102.035 27.9647 102.139 28.0686 102.243 28.2246C105.05 32.7468 101.568 43.8183 98.2409 48.7563C94.9142 53.6943 78.8008 58.1125 71.5757 53.6943C64.4026 49.2761 74.7984 31.2913 74.7984 31.2913L73.0311 32.019C67.1055 42.5188 57.9572 52.7587 57.4374 55.5655C56.7616 59.256 60.816 60.0357 65.806 62.8426C70.848 65.6495 84.5184 64.0901 84.5184 64.0901C84.5184 64.0901 84.9863 65.4416 89.3525 68.2484V68.0925Z" fill="#350313"/>
<path d="M31.3431 39.5038C31.3431 39.5038 33.4223 41.583 31.0313 41.8949C31.0313 41.8949 22.1948 40.8033 17.3608 28.2244C12.4747 15.6455 19.6998 2.02697 29.264 2.80665C38.8281 3.58634 37.5806 11.1753 36.697 11.4352C36.697 11.4352 37.0088 5.4056 30.9793 3.89821C24.9497 2.39082 16.5291 11.3832 17.9845 19.9078C19.4919 28.4323 22.7146 35.2935 31.3431 39.4519V39.5038Z" fill="#9B344F"/>
<path d="M76.9295 20.8959C76.9295 20.8959 80.568 21.3637 78.125 28.4329C75.682 35.4501 72.3033 37.5292 69.3925 42.3633C66.4817 47.1973 63.5709 52.5512 61.2838 55.9298C58.9967 59.3084 54.2666 59.2045 51.3558 57.4892C48.445 55.7739 73.8107 19.7524 76.9295 20.844V20.8959Z" fill="#600828"/>
<path d="M75.7341 19.3884C75.7341 19.3884 66.1179 16.2696 57.3335 18.1409C48.549 20.0121 34.0989 25.3659 28.5371 28.6926C22.9754 32.0193 18.5571 35.242 11.7479 34.4623C4.99061 33.6826 6.08217 34.4623 5.61436 35.6578C5.19853 36.9053 4.93863 41.1156 13.5152 45.118C13.5152 45.118 18.869 47.0932 19.2848 47.0932C19.7007 47.0932 16.1661 46.8853 16.374 47.665C16.5819 48.4446 25.9382 51.0956 29.3688 52.6549C32.7994 54.2143 47.0416 58.7885 52.0316 58.6325C57.0216 58.5286 60.6082 54.4222 60.6082 54.4222C60.6082 54.4222 65.4942 45.2219 69.9644 39.0884C74.3826 32.9549 82.6992 23.4427 75.6821 19.3364L75.7341 19.3884Z" fill="url(#paint2_linear_5_1002)"/>
<path opacity="0.3" d="M78.3838 23.3906C76.0967 27.1331 67.8841 29.6801 64.6614 35.3458C59.9313 43.6624 61.2307 47.8207 53.7458 50.5236C46.2608 53.2785 42.2064 47.4569 41.1668 45.8975C40.0753 44.3381 39.1397 45.0659 36.2808 45.3257C33.422 45.5856 30.5631 47.4569 17.8802 45.0659C8.3161 43.2986 6.44485 37.373 6.081 34.5661C5.8211 34.826 5.87308 35.2418 5.71714 35.7096C5.30131 36.9571 5.04142 41.1674 13.618 45.1698C13.618 45.1698 18.452 46.9891 19.2837 47.145C18.7119 47.145 16.3209 47.093 16.4768 47.7168C16.6847 48.4965 26.0409 51.1474 29.4716 52.7068C32.9022 54.2661 47.1444 58.8403 52.1344 58.6844C57.1244 58.5804 60.7109 54.4741 60.7109 54.4741C60.7109 54.4741 65.597 45.2738 70.0672 39.1402C73.3938 34.5661 78.9036 28.0687 78.4878 23.3386L78.3838 23.3906Z" fill="#350313"/>
<path opacity="0.39" d="M53.0704 40.024C52.0308 45.0139 48.8081 48.6005 45.8453 48.0287C42.8825 47.405 41.2711 42.8828 42.3107 37.8408C43.3503 32.8509 46.573 29.2643 49.5358 29.8361C52.4986 30.4598 54.11 34.982 53.0704 40.024Z" fill="#330F09"/>
<path d="M52.1868 39.8686C51.3552 44.0789 48.6523 47.0417 46.1573 46.5219C43.6623 46.0021 42.3628 42.2076 43.1945 37.9973C44.0261 33.787 46.729 30.8242 49.224 31.292C51.719 31.8118 53.0185 35.6063 52.1868 39.8166V39.8686Z" fill="#350313"/>
<path d="M51.8748 36.1775C51.511 38.0488 50.2635 39.4002 49.1719 39.1923C48.0804 38.9844 47.4566 37.2691 47.8205 35.3458C48.1843 33.4746 49.4318 32.1231 50.5234 32.3311C51.615 32.539 52.2387 34.2543 51.8748 36.1775Z" fill="#F5F5F5"/>
<path opacity="0.4" d="M47.0409 43.7144C46.781 45.0139 45.8974 45.9495 45.1177 45.7936C44.338 45.6376 43.9222 44.4421 44.1821 43.0907C44.442 41.7912 45.2736 40.8556 46.1053 41.0115C46.885 41.1674 47.3008 42.363 47.0409 43.7144Z" fill="#F5F5F5"/>
<path d="M40.7513 47.0929C40.7513 47.9245 38.8801 48.3404 32.3827 48.9121C27.1848 49.3799 21.1033 47.7686 18.9721 47.1448C18.3484 47.1448 17.2568 47.1448 16.6851 47.3528C24.1181 49.328 32.4347 49.7958 37.2168 49.1201C42.1028 48.4443 40.9073 48.5483 41.9469 49.3799C42.9864 50.2116 42.1548 47.7166 41.3751 46.2612C40.5954 44.8058 40.6994 46.2612 40.6994 47.0929H40.7513Z" fill="#600828"/>
<path d="M22.0907 37.0093C22.0907 37.0093 24.7936 38.5167 22.4545 39.5563C22.4545 39.5563 13.1503 40.9077 4.7297 29.4204C-3.6909 17.985 -0.156327 2.13139 9.77167 0.260142C19.6997 -1.6111 20.5833 6.49763 19.6997 7.01742C19.6997 7.01742 18.3482 0.779933 11.7988 0.93587C5.24949 1.14379 -0.832055 12.5792 3.06637 20.8438C6.9648 29.1085 12.1627 35.19 22.1427 37.0093H22.0907Z" fill="#F27089"/>
<path opacity="0.26" d="M71.5228 19.4922C71.5228 19.4922 63.0503 16.5814 53.5381 19.6482C44.0259 22.663 32.5386 26.0416 40.3354 26.1975C48.1323 26.3535 54.3698 24.8981 61.075 25.7297C67.7803 26.5614 71.6788 26.0936 74.4337 24.4822C77.1885 22.9229 77.3965 20.5318 71.5228 19.5442V19.4922Z" fill="#FFFBF8"/>
<path d="M65.5452 18.9204C65.5452 18.9204 60.2434 18.0888 58.1642 19.3882C56.137 20.6877 62.6864 22.0911 65.3373 21.7273C68.0402 21.3634 68.612 19.5962 65.4932 18.9204H65.5452Z" fill="#FFFBF8"/>
<path d="M69.8083 19.9597C69.8083 19.9597 67.7811 20.4795 68.5608 21.6231C69.3925 22.7146 71.7835 22.9745 73.031 22.5067C74.2785 22.0389 73.9666 20.1157 69.8083 20.0117V19.9597Z" fill="#FFFBF8"/>
<path d="M107.025 33.5263C107.025 33.5263 106.817 32.6946 106.09 31.6031C106.246 32.6426 106.194 34.7738 104.894 38.6202C102.659 45.0656 98.5006 53.5382 92.4191 58.6321C89.4043 61.1791 86.1296 62.9464 83.6346 64.038C84.2064 63.986 84.5183 63.934 84.5183 63.934C84.5183 63.934 84.7262 64.6097 86.4415 65.9612C88.5207 64.4018 93.6146 60.2955 97.3051 55.6693C101.879 49.8997 106.869 40.2316 107.285 33.5783C107.129 33.5263 107.077 33.4743 107.077 33.4743L107.025 33.5263Z" fill="#600828"/>
<path d="M122.515 56.4494C122.515 56.4494 122.619 56.1376 122.671 55.9296C121.839 57.3331 120.228 59.0484 117.265 60.8157C109.728 65.3378 102.295 70.016 98.5523 70.6397C98.2404 70.6917 97.9286 70.7437 97.5647 70.7956C97.7206 71.2115 97.8766 71.6273 97.9805 72.0431C98.8642 71.8352 99.7998 71.5753 100.839 71.2115C106.765 69.1843 118.46 62.531 122.359 58.4246C122.515 58.2687 122.619 58.1128 122.775 58.0088C122.619 56.9692 122.463 56.3455 122.463 56.3455L122.515 56.4494Z" fill="#600828"/>
<path opacity="0.26" d="M94.6013 25.9379C94.6013 25.9379 80.463 21.3637 80.1511 26.4057C79.8393 31.4476 91.2747 37.2173 97.4082 34.8783C103.542 32.5392 101.67 28.2769 94.6013 25.9379Z" fill="#FFFBF8"/>
<path opacity="0.26" d="M113.418 39.712C112.898 39.5041 107.752 39.4001 110.767 44.754C113.73 50.1078 118.304 54.1622 119.552 51.6672C120.799 49.1722 119.396 42.259 113.418 39.764V39.712Z" fill="#FFFBF8"/>
<path d="M90.859 25.8857C90.859 25.8857 86.6487 23.9625 85.6091 25.2099C84.5696 26.4574 89.3516 29.5242 91.5348 29.3683C93.7179 29.2123 94.9134 27.445 90.859 25.8857Z" fill="#FFFBF8"/>
<path d="M115.394 41.5833C115.394 41.5833 111.859 40.2319 113.106 42.9348C114.354 45.6377 116.225 46.7293 117.421 46.2095C118.616 45.6897 117.005 42.6749 115.394 41.5314V41.5833Z" fill="#FFFBF8"/>
<path d="M96.3692 92.315C96.3692 92.315 85.7135 100.424 87.5327 101.827C89.352 103.231 95.3296 94.758 96.3692 92.315Z" fill="#F27089"/>
<path d="M101.255 92.5749C101.255 92.5749 101.463 97.5649 101.047 100.112C100.631 102.659 101.099 103.023 101.879 102.555C102.607 102.087 102.815 95.7976 101.255 92.5749Z" fill="#F27089"/>
<path d="M95.2775 90.0796C95.2775 90.0796 90.6513 86.4931 85.2975 87.4287C79.9956 88.3643 87.2727 88.8321 89.2479 89.248C91.2751 89.6638 95.2255 90.0796 95.2255 90.0796H95.2775Z" fill="#F27089"/>
</g>
<defs>
<linearGradient id="paint0_linear_5_1002" x1="82.698" y1="117.421" x2="97.0962" y2="81.2955" gradientUnits="userSpaceOnUse">
<stop offset="0.01" stop-color="#DE0F29"/>
<stop offset="1" stop-color="#FF576E"/>
</linearGradient>
<linearGradient id="paint1_linear_5_1002" x1="83.3224" y1="88.7801" x2="104.322" y2="5.30176" gradientUnits="userSpaceOnUse">
<stop offset="0.01" stop-color="#DE0F29"/>
<stop offset="1" stop-color="#FF576E"/>
</linearGradient>
<linearGradient id="paint2_linear_5_1002" x1="33.735" y1="83.3745" x2="44.1828" y2="16.2176" gradientUnits="userSpaceOnUse">
<stop offset="0.01" stop-color="#DE0F29"/>
<stop offset="1" stop-color="#FF576E"/>
</linearGradient>
<clipPath id="clip0_5_1002">
<rect width="123.242" height="109" fill="white"/>
</clipPath>
</defs>
</svg>
